<?xml version="1.0" encoding="UTF-8"?>
<svg xmlns="http://www.w3.org/2000/svg" xmlns:xlink="http://www.w3.org/1999/xlink" width="109pt" height="88pt" viewBox="0 0 109 88" version="1.1">
<g id="surface1">
<path style="fill-rule:nonzero;fill:rgb(69.999695%,69.999695%,100%);fill-opacity:1;stroke-width:0.3985;stroke-linecap:butt;stroke-linejoin:miter;stroke:rgb(0%,0%,100%);stroke-opacity:1;stroke-miterlimit:10;" d="M 52.894108 14.171688 L 77.444153 28.347469 L 105.790958 28.347469 L 81.240914 14.171688 L 52.894108 14.171688 " transform="matrix(1.00003,0,0,-1,1.096493,58.492)"/>
<path style="fill-rule:nonzero;fill:rgb(69.999695%,100%,69.999695%);fill-opacity:1;stroke-width:0.3985;stroke-linecap:butt;stroke-linejoin:miter;stroke:rgb(0%,50%,0%);stroke-opacity:1;stroke-miterlimit:10;" d="M 52.894108 14.171688 L 77.444153 28.347469 L 77.444153 56.695125 L 52.894108 42.519344 L 52.894108 14.171688 " transform="matrix(1.00003,0,0,-1,1.096493,58.492)"/>
<path style="fill-rule:nonzero;fill:rgb(100%,69.999695%,69.999695%);fill-opacity:1;stroke-width:0.3985;stroke-linecap:butt;stroke-linejoin:miter;stroke:rgb(100%,0%,0%);stroke-opacity:1;stroke-miterlimit:10;" d="M 24.547302 -14.172062 L 81.240914 -14.172062 L 81.240914 42.519344 L 24.547302 42.519344 L 24.547302 -14.172062 " transform="matrix(1.00003,0,0,-1,1.096493,58.492)"/>
<path style="fill-rule:nonzero;fill:rgb(69.999695%,69.999695%,100%);fill-opacity:1;stroke-width:0.3985;stroke-linecap:butt;stroke-linejoin:miter;stroke:rgb(0%,0%,100%);stroke-opacity:1;stroke-miterlimit:10;" d="M 0.00116334 -0.0001875 L 24.547302 14.171688 L 52.894108 14.171688 L 28.347969 -0.0001875 L 0.00116334 -0.0001875 " transform="matrix(1.00003,0,0,-1,1.096493,58.492)"/>
<path style="fill:none;stroke-width:0.3985;stroke-linecap:butt;stroke-linejoin:miter;stroke:rgb(0%,0%,0%);stroke-opacity:1;stroke-miterlimit:10;" d="M 24.547302 14.171688 L 52.894108 14.171688 " transform="matrix(1.00003,0,0,-1,1.096493,58.492)"/>
<path style="fill-rule:nonzero;fill:rgb(69.999695%,100%,69.999695%);fill-opacity:1;stroke-width:0.3985;stroke-linecap:butt;stroke-linejoin:miter;stroke:rgb(0%,50%,0%);stroke-opacity:1;stroke-miterlimit:10;" d="M 28.347969 -28.347844 L 52.894108 -14.172062 L 52.894108 42.519344 L 28.347969 28.347469 L 28.347969 -28.347844 " transform="matrix(1.00003,0,0,-1,1.096493,58.492)"/>
<path style="fill:none;stroke-width:0.3985;stroke-linecap:butt;stroke-linejoin:miter;stroke:rgb(0%,0%,0%);stroke-opacity:1;stroke-miterlimit:10;" d="M 52.894108 -14.172062 L 52.894108 14.171688 " transform="matrix(1.00003,0,0,-1,1.096493,58.492)"/>
<path style="fill-rule:nonzero;fill:rgb(69.999695%,69.999695%,100%);fill-opacity:1;stroke-width:0.3985;stroke-linecap:butt;stroke-linejoin:miter;stroke:rgb(0%,0%,100%);stroke-opacity:1;stroke-miterlimit:10;" d="M 28.347969 -0.0001875 L 52.894108 14.171688 L 81.240914 14.171688 L 56.694775 -0.0001875 L 28.347969 -0.0001875 " transform="matrix(1.00003,0,0,-1,1.096493,58.492)"/>
<path style="fill:none;stroke-width:0.3985;stroke-linecap:butt;stroke-linejoin:miter;stroke:rgb(0%,0%,0%);stroke-opacity:1;stroke-miterlimit:10;" d="M 28.347969 -0.0001875 L 52.894108 14.171688 L 81.240914 14.171688 " transform="matrix(1.00003,0,0,-1,1.096493,58.492)"/>
<path style="fill:none;stroke-width:0.3985;stroke-linecap:butt;stroke-linejoin:miter;stroke:rgb(0%,0%,0%);stroke-opacity:1;stroke-miterlimit:10;" d="M 52.894108 14.171688 L 52.894108 42.519344 " transform="matrix(1.00003,0,0,-1,1.096493,58.492)"/>
<path style="fill-rule:nonzero;fill:rgb(0%,0%,0%);fill-opacity:1;stroke-width:0.3985;stroke-linecap:butt;stroke-linejoin:miter;stroke:rgb(0%,0%,0%);stroke-opacity:1;stroke-miterlimit:10;" d="M 54.597182 14.171688 C 54.597182 15.113094 53.835486 15.874813 52.894108 15.874813 C 51.956636 15.874813 51.19494 15.113094 51.19494 14.171688 C 51.19494 13.234188 51.956636 12.472469 52.894108 12.472469 C 53.835486 12.472469 54.597182 13.234188 54.597182 14.171688 Z M 54.597182 14.171688 " transform="matrix(1.00003,0,0,-1,1.096493,58.492)"/>
</g>
</svg>
