<?xml version="1.0" encoding="UTF-8"?>
<svg xmlns="http://www.w3.org/2000/svg" xmlns:xlink="http://www.w3.org/1999/xlink" width="131pt" height="114pt" viewBox="0 0 131 114" version="1.1">
<defs>
<clipPath id="clip1">
  <path d="M 2 26 L 88 26 L 88 112.15625 L 2 112.15625 Z M 2 26 "/>
</clipPath>
<clipPath id="clip2">
  <path d="M 81 81 L 129.964844 81 L 129.964844 112.15625 L 81 112.15625 Z M 81 81 "/>
</clipPath>
<clipPath id="clip3">
  <path d="M 81 72 L 129.964844 72 L 129.964844 110 L 81 110 Z M 81 72 "/>
</clipPath>
<clipPath id="clip4">
  <path d="M 81 63 L 129.964844 63 L 129.964844 101 L 81 101 Z M 81 63 "/>
</clipPath>
<clipPath id="clip5">
  <path d="M 81 55 L 129.964844 55 L 129.964844 93 L 81 93 Z M 81 55 "/>
</clipPath>
<clipPath id="clip6">
  <path d="M 81 46 L 129.964844 46 L 129.964844 84 L 81 84 Z M 81 46 "/>
</clipPath>
<clipPath id="clip7">
  <path d="M 81 38 L 129.964844 38 L 129.964844 76 L 81 76 Z M 81 38 "/>
</clipPath>
<clipPath id="clip8">
  <path d="M 81 29 L 129.964844 29 L 129.964844 67 L 81 67 Z M 81 29 "/>
</clipPath>
<clipPath id="clip9">
  <path d="M 81 21 L 129.964844 21 L 129.964844 59 L 81 59 Z M 81 21 "/>
</clipPath>
<clipPath id="clip10">
  <path d="M 81 12 L 129.964844 12 L 129.964844 50 L 81 50 Z M 81 12 "/>
</clipPath>
<clipPath id="clip11">
  <path d="M 81 4 L 129.964844 4 L 129.964844 42 L 81 42 Z M 81 4 "/>
</clipPath>
<clipPath id="clip12">
  <path d="M 81 81 L 129.964844 81 L 129.964844 112.15625 L 81 112.15625 Z M 81 81 "/>
</clipPath>
<clipPath id="clip13">
  <path d="M 0 1.597656 L 110 1.597656 L 110 112.15625 L 0 112.15625 Z M 0 1.597656 "/>
</clipPath>
<clipPath id="clip14">
  <path d="M 0 1.597656 L 119 1.597656 L 119 112.15625 L 0 112.15625 Z M 0 1.597656 "/>
</clipPath>
<clipPath id="clip15">
  <path d="M 0 1.597656 L 127 1.597656 L 127 112.15625 L 0 112.15625 Z M 0 1.597656 "/>
</clipPath>
<clipPath id="clip16">
  <path d="M 5 1.597656 L 129.964844 1.597656 L 129.964844 112.15625 L 5 112.15625 Z M 5 1.597656 "/>
</clipPath>
<clipPath id="clip17">
  <path d="M 13 1.597656 L 129.964844 1.597656 L 129.964844 112.15625 L 13 112.15625 Z M 13 1.597656 "/>
</clipPath>
<clipPath id="clip18">
  <path d="M 22 1.597656 L 129.964844 1.597656 L 129.964844 112.15625 L 22 112.15625 Z M 22 1.597656 "/>
</clipPath>
<clipPath id="clip19">
  <path d="M 30 1.597656 L 129.964844 1.597656 L 129.964844 112.15625 L 30 112.15625 Z M 30 1.597656 "/>
</clipPath>
<clipPath id="clip20">
  <path d="M 39 1.597656 L 129.964844 1.597656 L 129.964844 112.15625 L 39 112.15625 Z M 39 1.597656 "/>
</clipPath>
<clipPath id="clip21">
  <path d="M 47 1.597656 L 129.964844 1.597656 L 129.964844 112.15625 L 47 112.15625 Z M 47 1.597656 "/>
</clipPath>
<clipPath id="clip22">
  <path d="M 56 1.597656 L 129.964844 1.597656 L 129.964844 112.15625 L 56 112.15625 Z M 56 1.597656 "/>
</clipPath>
<clipPath id="clip23">
  <path d="M 64 1.597656 L 129.964844 1.597656 L 129.964844 112.15625 L 64 112.15625 Z M 64 1.597656 "/>
</clipPath>
<clipPath id="clip24">
  <path d="M 0 81 L 129.964844 81 L 129.964844 112.15625 L 0 112.15625 Z M 0 81 "/>
</clipPath>
<clipPath id="clip25">
  <path d="M 0 72 L 129.964844 72 L 129.964844 110 L 0 110 Z M 0 72 "/>
</clipPath>
<clipPath id="clip26">
  <path d="M 0 63 L 129.964844 63 L 129.964844 101 L 0 101 Z M 0 63 "/>
</clipPath>
<clipPath id="clip27">
  <path d="M 0 55 L 129.964844 55 L 129.964844 93 L 0 93 Z M 0 55 "/>
</clipPath>
<clipPath id="clip28">
  <path d="M 0 46 L 129.964844 46 L 129.964844 84 L 0 84 Z M 0 46 "/>
</clipPath>
<clipPath id="clip29">
  <path d="M 0 38 L 129.964844 38 L 129.964844 76 L 0 76 Z M 0 38 "/>
</clipPath>
<clipPath id="clip30">
  <path d="M 0 29 L 129.964844 29 L 129.964844 67 L 0 67 Z M 0 29 "/>
</clipPath>
<clipPath id="clip31">
  <path d="M 0 21 L 129.964844 21 L 129.964844 59 L 0 59 Z M 0 21 "/>
</clipPath>
<clipPath id="clip32">
  <path d="M 0 12 L 129.964844 12 L 129.964844 50 L 0 50 Z M 0 12 "/>
</clipPath>
<clipPath id="clip33">
  <path d="M 0 4 L 129.964844 4 L 129.964844 42 L 0 42 Z M 0 4 "/>
</clipPath>
<clipPath id="clip34">
  <path d="M 0 1.597656 L 129.964844 1.597656 L 129.964844 33 L 0 33 Z M 0 1.597656 "/>
</clipPath>
<clipPath id="clip35">
  <path d="M 44 1.597656 L 129.964844 1.597656 L 129.964844 87 L 44 87 Z M 44 1.597656 "/>
</clipPath>
</defs>
<g id="surface1">
<g clip-path="url(#clip1)" clip-rule="nonzero">
<path style="fill:none;stroke-width:0.3985;stroke-linecap:butt;stroke-linejoin:miter;stroke:rgb(0%,0%,0%);stroke-opacity:1;stroke-miterlimit:10;" d="M 0.00134375 0.000557822 L 85.040406 0.000557822 M 0.00134375 8.504039 L 85.040406 8.504039 M 0.00134375 17.00752 L 85.040406 17.00752 M 0.00134375 25.511001 L 85.040406 25.511001 M 0.00134375 34.018388 L 85.040406 34.018388 M 0.00134375 42.521869 L 85.040406 42.521869 M 0.00134375 51.02535 L 85.040406 51.02535 M 0.00134375 59.528831 L 85.040406 59.528831 M 0.00134375 68.032312 L 85.040406 68.032312 M 0.00134375 76.535794 L 85.040406 76.535794 M 0.00134375 85.039275 L 85.040406 85.039275 M 0.00134375 0.000557822 L 0.00134375 85.043181 M 8.50525 0.000557822 L 8.50525 85.043181 M 17.009156 0.000557822 L 17.009156 85.043181 M 25.513062 0.000557822 L 25.513062 85.043181 M 34.016969 0.000557822 L 34.016969 85.043181 M 42.520875 0.000557822 L 42.520875 85.043181 M 51.024781 0.000557822 L 51.024781 85.043181 M 59.528687 0.000557822 L 59.528687 85.043181 M 68.032594 0.000557822 L 68.032594 85.043181 M 76.5365 0.000557822 L 76.5365 85.043181 M 85.0365 0.000557822 L 85.0365 85.043181 " transform="matrix(1,0,0,-1.00005,2.401,112.156808)"/>
</g>
<g clip-path="url(#clip2)" clip-rule="nonzero">
<path style="fill:none;stroke-width:0.3985;stroke-linecap:butt;stroke-linejoin:miter;stroke:rgb(0%,0%,0%);stroke-opacity:1;stroke-miterlimit:10;" d="M 85.040406 0.000557822 L 127.563844 25.511001 " transform="matrix(1,0,0,-1.00005,2.401,112.156808)"/>
</g>
<g clip-path="url(#clip3)" clip-rule="nonzero">
<path style="fill:none;stroke-width:0.3985;stroke-linecap:butt;stroke-linejoin:miter;stroke:rgb(0%,0%,0%);stroke-opacity:1;stroke-miterlimit:10;" d="M 85.040406 8.504039 L 127.563844 34.018388 " transform="matrix(1,0,0,-1.00005,2.401,112.156808)"/>
</g>
<g clip-path="url(#clip4)" clip-rule="nonzero">
<path style="fill:none;stroke-width:0.3985;stroke-linecap:butt;stroke-linejoin:miter;stroke:rgb(0%,0%,0%);stroke-opacity:1;stroke-miterlimit:10;" d="M 85.040406 17.00752 L 127.563844 42.521869 " transform="matrix(1,0,0,-1.00005,2.401,112.156808)"/>
</g>
<g clip-path="url(#clip5)" clip-rule="nonzero">
<path style="fill:none;stroke-width:0.3985;stroke-linecap:butt;stroke-linejoin:miter;stroke:rgb(0%,0%,0%);stroke-opacity:1;stroke-miterlimit:10;" d="M 85.040406 25.511001 L 127.563844 51.02535 " transform="matrix(1,0,0,-1.00005,2.401,112.156808)"/>
</g>
<g clip-path="url(#clip6)" clip-rule="nonzero">
<path style="fill:none;stroke-width:0.3985;stroke-linecap:butt;stroke-linejoin:miter;stroke:rgb(0%,0%,0%);stroke-opacity:1;stroke-miterlimit:10;" d="M 85.040406 34.018388 L 127.563844 59.528831 " transform="matrix(1,0,0,-1.00005,2.401,112.156808)"/>
</g>
<g clip-path="url(#clip7)" clip-rule="nonzero">
<path style="fill:none;stroke-width:0.3985;stroke-linecap:butt;stroke-linejoin:miter;stroke:rgb(0%,0%,0%);stroke-opacity:1;stroke-miterlimit:10;" d="M 85.040406 42.521869 L 127.563844 68.032312 " transform="matrix(1,0,0,-1.00005,2.401,112.156808)"/>
</g>
<g clip-path="url(#clip8)" clip-rule="nonzero">
<path style="fill:none;stroke-width:0.3985;stroke-linecap:butt;stroke-linejoin:miter;stroke:rgb(0%,0%,0%);stroke-opacity:1;stroke-miterlimit:10;" d="M 85.040406 51.02535 L 127.563844 76.535794 " transform="matrix(1,0,0,-1.00005,2.401,112.156808)"/>
</g>
<g clip-path="url(#clip9)" clip-rule="nonzero">
<path style="fill:none;stroke-width:0.3985;stroke-linecap:butt;stroke-linejoin:miter;stroke:rgb(0%,0%,0%);stroke-opacity:1;stroke-miterlimit:10;" d="M 85.040406 59.528831 L 127.563844 85.043181 " transform="matrix(1,0,0,-1.00005,2.401,112.156808)"/>
</g>
<g clip-path="url(#clip10)" clip-rule="nonzero">
<path style="fill:none;stroke-width:0.3985;stroke-linecap:butt;stroke-linejoin:miter;stroke:rgb(0%,0%,0%);stroke-opacity:1;stroke-miterlimit:10;" d="M 85.040406 68.032312 L 127.563844 93.546662 " transform="matrix(1,0,0,-1.00005,2.401,112.156808)"/>
</g>
<g clip-path="url(#clip11)" clip-rule="nonzero">
<path style="fill:none;stroke-width:0.3985;stroke-linecap:butt;stroke-linejoin:miter;stroke:rgb(0%,0%,0%);stroke-opacity:1;stroke-miterlimit:10;" d="M 85.040406 76.535794 L 127.563844 102.050143 " transform="matrix(1,0,0,-1.00005,2.401,112.156808)"/>
</g>
<g clip-path="url(#clip12)" clip-rule="nonzero">
<path style="fill:none;stroke-width:0.3985;stroke-linecap:butt;stroke-linejoin:miter;stroke:rgb(0%,0%,0%);stroke-opacity:1;stroke-miterlimit:10;" d="M 85.040406 0.000557822 L 127.563844 25.511001 " transform="matrix(1,0,0,-1.00005,2.401,112.156808)"/>
</g>
<g clip-path="url(#clip13)" clip-rule="nonzero">
<path style="fill:none;stroke-width:1.59404;stroke-linecap:butt;stroke-linejoin:miter;stroke:rgb(0%,0%,0%);stroke-opacity:1;stroke-miterlimit:10;" d="M 0.00134375 0.000557822 L 0.00134375 85.043181 L 85.040406 136.067973 " transform="matrix(1,0,0,-1.00005,2.401,112.156808)"/>
</g>
<g clip-path="url(#clip14)" clip-rule="nonzero">
<path style="fill:none;stroke-width:1.59404;stroke-linecap:butt;stroke-linejoin:miter;stroke:rgb(0%,0%,0%);stroke-opacity:1;stroke-miterlimit:10;" d="M 8.50525 0.000557822 L 8.50525 85.043181 L 93.544312 136.067973 " transform="matrix(1,0,0,-1.00005,2.401,112.156808)"/>
</g>
<g clip-path="url(#clip15)" clip-rule="nonzero">
<path style="fill:none;stroke-width:1.59404;stroke-linecap:butt;stroke-linejoin:miter;stroke:rgb(0%,0%,0%);stroke-opacity:1;stroke-miterlimit:10;" d="M 17.009156 0.000557822 L 17.009156 85.043181 L 102.048219 136.067973 " transform="matrix(1,0,0,-1.00005,2.401,112.156808)"/>
</g>
<g clip-path="url(#clip16)" clip-rule="nonzero">
<path style="fill:none;stroke-width:1.59404;stroke-linecap:butt;stroke-linejoin:miter;stroke:rgb(0%,0%,0%);stroke-opacity:1;stroke-miterlimit:10;" d="M 25.513062 0.000557822 L 25.513062 85.043181 L 110.552125 136.067973 " transform="matrix(1,0,0,-1.00005,2.401,112.156808)"/>
</g>
<g clip-path="url(#clip17)" clip-rule="nonzero">
<path style="fill:none;stroke-width:1.59404;stroke-linecap:butt;stroke-linejoin:miter;stroke:rgb(0%,0%,0%);stroke-opacity:1;stroke-miterlimit:10;" d="M 34.016969 0.000557822 L 34.016969 85.043181 L 119.056031 136.067973 " transform="matrix(1,0,0,-1.00005,2.401,112.156808)"/>
</g>
<g clip-path="url(#clip18)" clip-rule="nonzero">
<path style="fill:none;stroke-width:1.59404;stroke-linecap:butt;stroke-linejoin:miter;stroke:rgb(0%,0%,0%);stroke-opacity:1;stroke-miterlimit:10;" d="M 42.520875 0.000557822 L 42.520875 85.043181 L 127.563844 136.067973 " transform="matrix(1,0,0,-1.00005,2.401,112.156808)"/>
</g>
<g clip-path="url(#clip19)" clip-rule="nonzero">
<path style="fill:none;stroke-width:1.59404;stroke-linecap:butt;stroke-linejoin:miter;stroke:rgb(0%,0%,0%);stroke-opacity:1;stroke-miterlimit:10;" d="M 51.024781 0.000557822 L 51.024781 85.043181 L 136.06775 136.067973 " transform="matrix(1,0,0,-1.00005,2.401,112.156808)"/>
</g>
<g clip-path="url(#clip20)" clip-rule="nonzero">
<path style="fill:none;stroke-width:1.59404;stroke-linecap:butt;stroke-linejoin:miter;stroke:rgb(0%,0%,0%);stroke-opacity:1;stroke-miterlimit:10;" d="M 59.528687 0.000557822 L 59.528687 85.043181 L 144.571656 136.067973 " transform="matrix(1,0,0,-1.00005,2.401,112.156808)"/>
</g>
<g clip-path="url(#clip21)" clip-rule="nonzero">
<path style="fill:none;stroke-width:1.59404;stroke-linecap:butt;stroke-linejoin:miter;stroke:rgb(0%,0%,0%);stroke-opacity:1;stroke-miterlimit:10;" d="M 68.032594 0.000557822 L 68.032594 85.043181 L 153.075562 136.067973 " transform="matrix(1,0,0,-1.00005,2.401,112.156808)"/>
</g>
<g clip-path="url(#clip22)" clip-rule="nonzero">
<path style="fill:none;stroke-width:1.59404;stroke-linecap:butt;stroke-linejoin:miter;stroke:rgb(0%,0%,0%);stroke-opacity:1;stroke-miterlimit:10;" d="M 76.5365 0.000557822 L 76.5365 85.043181 L 161.579469 136.067973 " transform="matrix(1,0,0,-1.00005,2.401,112.156808)"/>
</g>
<g clip-path="url(#clip23)" clip-rule="nonzero">
<path style="fill:none;stroke-width:1.59404;stroke-linecap:butt;stroke-linejoin:miter;stroke:rgb(0%,0%,0%);stroke-opacity:1;stroke-miterlimit:10;" d="M 85.040406 0.000557822 L 85.040406 85.043181 L 170.083375 136.067973 " transform="matrix(1,0,0,-1.00005,2.401,112.156808)"/>
</g>
<g clip-path="url(#clip24)" clip-rule="nonzero">
<path style="fill:none;stroke-width:0.3985;stroke-linecap:butt;stroke-linejoin:miter;stroke:rgb(0%,0%,0%);stroke-opacity:1;stroke-miterlimit:10;" d="M 0.00134375 0.000557822 L 85.040406 0.000557822 L 127.563844 25.511001 " transform="matrix(1,0,0,-1.00005,2.401,112.156808)"/>
</g>
<g clip-path="url(#clip25)" clip-rule="nonzero">
<path style="fill:none;stroke-width:0.3985;stroke-linecap:butt;stroke-linejoin:miter;stroke:rgb(0%,0%,0%);stroke-opacity:1;stroke-miterlimit:10;" d="M 0.00134375 8.504039 L 85.040406 8.504039 L 127.563844 34.018388 " transform="matrix(1,0,0,-1.00005,2.401,112.156808)"/>
</g>
<g clip-path="url(#clip26)" clip-rule="nonzero">
<path style="fill:none;stroke-width:0.3985;stroke-linecap:butt;stroke-linejoin:miter;stroke:rgb(0%,0%,0%);stroke-opacity:1;stroke-miterlimit:10;" d="M 0.00134375 17.00752 L 85.040406 17.00752 L 127.563844 42.521869 " transform="matrix(1,0,0,-1.00005,2.401,112.156808)"/>
</g>
<g clip-path="url(#clip27)" clip-rule="nonzero">
<path style="fill:none;stroke-width:0.3985;stroke-linecap:butt;stroke-linejoin:miter;stroke:rgb(0%,0%,0%);stroke-opacity:1;stroke-miterlimit:10;" d="M 0.00134375 25.511001 L 85.040406 25.511001 L 127.563844 51.02535 " transform="matrix(1,0,0,-1.00005,2.401,112.156808)"/>
</g>
<g clip-path="url(#clip28)" clip-rule="nonzero">
<path style="fill:none;stroke-width:0.3985;stroke-linecap:butt;stroke-linejoin:miter;stroke:rgb(0%,0%,0%);stroke-opacity:1;stroke-miterlimit:10;" d="M 0.00134375 34.018388 L 85.040406 34.018388 L 127.563844 59.528831 " transform="matrix(1,0,0,-1.00005,2.401,112.156808)"/>
</g>
<g clip-path="url(#clip29)" clip-rule="nonzero">
<path style="fill:none;stroke-width:0.3985;stroke-linecap:butt;stroke-linejoin:miter;stroke:rgb(0%,0%,0%);stroke-opacity:1;stroke-miterlimit:10;" d="M 0.00134375 42.521869 L 85.040406 42.521869 L 127.563844 68.032312 " transform="matrix(1,0,0,-1.00005,2.401,112.156808)"/>
</g>
<g clip-path="url(#clip30)" clip-rule="nonzero">
<path style="fill:none;stroke-width:0.3985;stroke-linecap:butt;stroke-linejoin:miter;stroke:rgb(0%,0%,0%);stroke-opacity:1;stroke-miterlimit:10;" d="M 0.00134375 51.02535 L 85.040406 51.02535 L 127.563844 76.535794 " transform="matrix(1,0,0,-1.00005,2.401,112.156808)"/>
</g>
<g clip-path="url(#clip31)" clip-rule="nonzero">
<path style="fill:none;stroke-width:0.3985;stroke-linecap:butt;stroke-linejoin:miter;stroke:rgb(0%,0%,0%);stroke-opacity:1;stroke-miterlimit:10;" d="M 0.00134375 59.528831 L 85.040406 59.528831 L 127.563844 85.043181 " transform="matrix(1,0,0,-1.00005,2.401,112.156808)"/>
</g>
<g clip-path="url(#clip32)" clip-rule="nonzero">
<path style="fill:none;stroke-width:0.3985;stroke-linecap:butt;stroke-linejoin:miter;stroke:rgb(0%,0%,0%);stroke-opacity:1;stroke-miterlimit:10;" d="M 0.00134375 68.032312 L 85.040406 68.032312 L 127.563844 93.546662 " transform="matrix(1,0,0,-1.00005,2.401,112.156808)"/>
</g>
<g clip-path="url(#clip33)" clip-rule="nonzero">
<path style="fill:none;stroke-width:0.3985;stroke-linecap:butt;stroke-linejoin:miter;stroke:rgb(0%,0%,0%);stroke-opacity:1;stroke-miterlimit:10;" d="M 0.00134375 76.535794 L 85.040406 76.535794 L 127.563844 102.050143 " transform="matrix(1,0,0,-1.00005,2.401,112.156808)"/>
</g>
<g clip-path="url(#clip34)" clip-rule="nonzero">
<path style="fill:none;stroke-width:0.3985;stroke-linecap:butt;stroke-linejoin:miter;stroke:rgb(0%,0%,0%);stroke-opacity:1;stroke-miterlimit:10;" d="M 0.00134375 85.043181 L 85.040406 85.043181 L 127.563844 110.553624 " transform="matrix(1,0,0,-1.00005,2.401,112.156808)"/>
</g>
<path style="fill:none;stroke-width:0.3985;stroke-linecap:butt;stroke-linejoin:miter;stroke:rgb(0%,0%,0%);stroke-opacity:1;stroke-miterlimit:10;" d="M 4.251344 87.593834 L 89.294312 87.593834 L 89.294312 2.551212 " transform="matrix(1,0,0,-1.00005,2.401,112.156808)"/>
<path style="fill:none;stroke-width:0.3985;stroke-linecap:butt;stroke-linejoin:miter;stroke:rgb(0%,0%,0%);stroke-opacity:1;stroke-miterlimit:10;" d="M 8.50525 90.144488 L 93.544312 90.144488 L 93.544312 5.101865 " transform="matrix(1,0,0,-1.00005,2.401,112.156808)"/>
<path style="fill:none;stroke-width:0.3985;stroke-linecap:butt;stroke-linejoin:miter;stroke:rgb(0%,0%,0%);stroke-opacity:1;stroke-miterlimit:10;" d="M 12.75525 92.695142 L 97.798219 92.695142 L 97.798219 7.652519 " transform="matrix(1,0,0,-1.00005,2.401,112.156808)"/>
<path style="fill:none;stroke-width:0.3985;stroke-linecap:butt;stroke-linejoin:miter;stroke:rgb(0%,0%,0%);stroke-opacity:1;stroke-miterlimit:10;" d="M 17.009156 95.245796 L 102.048219 95.245796 L 102.048219 10.203173 " transform="matrix(1,0,0,-1.00005,2.401,112.156808)"/>
<path style="fill:none;stroke-width:0.3985;stroke-linecap:butt;stroke-linejoin:miter;stroke:rgb(0%,0%,0%);stroke-opacity:1;stroke-miterlimit:10;" d="M 21.259156 97.796449 L 106.302125 97.796449 L 106.302125 12.757732 " transform="matrix(1,0,0,-1.00005,2.401,112.156808)"/>
<path style="fill:none;stroke-width:0.3985;stroke-linecap:butt;stroke-linejoin:miter;stroke:rgb(0%,0%,0%);stroke-opacity:1;stroke-miterlimit:10;" d="M 25.513062 100.347103 L 110.552125 100.347103 L 110.552125 15.308386 " transform="matrix(1,0,0,-1.00005,2.401,112.156808)"/>
<path style="fill:none;stroke-width:0.3985;stroke-linecap:butt;stroke-linejoin:miter;stroke:rgb(0%,0%,0%);stroke-opacity:1;stroke-miterlimit:10;" d="M 29.763062 102.901663 L 114.806031 102.901663 L 114.806031 17.85904 " transform="matrix(1,0,0,-1.00005,2.401,112.156808)"/>
<path style="fill:none;stroke-width:0.3985;stroke-linecap:butt;stroke-linejoin:miter;stroke:rgb(0%,0%,0%);stroke-opacity:1;stroke-miterlimit:10;" d="M 34.016969 105.452316 L 119.056031 105.452316 L 119.056031 20.409694 " transform="matrix(1,0,0,-1.00005,2.401,112.156808)"/>
<path style="fill:none;stroke-width:0.3985;stroke-linecap:butt;stroke-linejoin:miter;stroke:rgb(0%,0%,0%);stroke-opacity:1;stroke-miterlimit:10;" d="M 38.266969 108.00297 L 123.309937 108.00297 L 123.309937 22.960347 " transform="matrix(1,0,0,-1.00005,2.401,112.156808)"/>
<g clip-path="url(#clip35)" clip-rule="nonzero">
<path style="fill:none;stroke-width:0.3985;stroke-linecap:butt;stroke-linejoin:miter;stroke:rgb(0%,0%,0%);stroke-opacity:1;stroke-miterlimit:10;" d="M 42.520875 110.553624 L 127.563844 110.553624 L 127.563844 25.511001 " transform="matrix(1,0,0,-1.00005,2.401,112.156808)"/>
</g>
</g>
</svg>
