<?xml version="1.0" encoding="UTF-8"?>
<svg xmlns="http://www.w3.org/2000/svg" xmlns:xlink="http://www.w3.org/1999/xlink" width="311pt" height="74pt" viewBox="0 0 311 74" version="1.1">
<g id="surface1">
<path style="fill-rule:nonzero;fill:rgb(69.999695%,69.999695%,100%);fill-opacity:1;stroke-width:0.3985;stroke-linecap:butt;stroke-linejoin:miter;stroke:rgb(0%,0%,100%);stroke-opacity:1;stroke-miterlimit:10;" d="M -0.00191188 0.00146875 L 24.548378 14.173344 L 81.242557 14.173344 L 56.692267 0.00146875 L -0.00191188 0.00146875 " transform="matrix(1.00002,0,0,-1,1.095662,30.146)"/>
<path style="fill-rule:nonzero;fill:rgb(100%,69.999695%,69.999695%);fill-opacity:1;stroke-width:0.3985;stroke-linecap:butt;stroke-linejoin:miter;stroke:rgb(100%,0%,0%);stroke-opacity:1;stroke-miterlimit:10;" d="M -0.00191188 -21.26025 L 24.548378 -7.088375 L 81.242557 -7.088375 L 56.692267 -21.26025 L -0.00191188 -21.26025 " transform="matrix(1.00002,0,0,-1,1.095662,30.146)"/>
<path style="fill-rule:nonzero;fill:rgb(69.999695%,100%,69.999695%);fill-opacity:1;stroke-width:0.3985;stroke-linecap:butt;stroke-linejoin:miter;stroke:rgb(0%,50%,0%);stroke-opacity:1;stroke-miterlimit:10;" d="M -0.00191188 -42.521969 L 24.548378 -28.346187 L 81.242557 -28.346187 L 56.692267 -42.521969 L -0.00191188 -42.521969 " transform="matrix(1.00002,0,0,-1,1.095662,30.146)"/>
<path style="fill-rule:nonzero;fill:rgb(69.999695%,100%,69.999695%);fill-opacity:1;stroke-width:0.3985;stroke-linecap:butt;stroke-linejoin:miter;stroke:rgb(0%,50%,0%);stroke-opacity:1;stroke-miterlimit:10;" d="M 141.733535 -42.521969 L 166.283825 -28.346187 L 166.283825 -14.174312 L 141.733535 -28.346187 L 141.733535 -42.521969 " transform="matrix(1.00002,0,0,-1,1.095662,30.146)"/>
<path style="fill-rule:nonzero;fill:rgb(100%,69.999695%,69.999695%);fill-opacity:1;stroke-width:0.3985;stroke-linecap:butt;stroke-linejoin:miter;stroke:rgb(100%,0%,0%);stroke-opacity:1;stroke-miterlimit:10;" d="M 113.386445 -28.346187 L 137.936736 -14.174312 L 194.630914 -14.174312 L 170.080624 -28.346187 L 113.386445 -28.346187 " transform="matrix(1.00002,0,0,-1,1.095662,30.146)"/>
<path style="fill-rule:nonzero;fill:rgb(69.999695%,100%,69.999695%);fill-opacity:1;stroke-width:0.3985;stroke-linecap:butt;stroke-linejoin:miter;stroke:rgb(0%,50%,0%);stroke-opacity:1;stroke-miterlimit:10;" d="M 141.733535 -28.346187 L 166.283825 -14.174312 L 166.283825 7.087406 L 141.733535 -7.088375 L 141.733535 -28.346187 " transform="matrix(1.00002,0,0,-1,1.095662,30.146)"/>
<path style="fill-rule:nonzero;fill:rgb(69.999695%,69.999695%,100%);fill-opacity:1;stroke-width:0.3985;stroke-linecap:butt;stroke-linejoin:miter;stroke:rgb(0%,0%,100%);stroke-opacity:1;stroke-miterlimit:10;" d="M 113.386445 -7.088375 L 137.936736 7.087406 L 194.630914 7.087406 L 170.080624 -7.088375 L 113.386445 -7.088375 " transform="matrix(1.00002,0,0,-1,1.095662,30.146)"/>
<path style="fill-rule:nonzero;fill:rgb(69.999695%,100%,69.999695%);fill-opacity:1;stroke-width:0.3985;stroke-linecap:butt;stroke-linejoin:miter;stroke:rgb(0%,50%,0%);stroke-opacity:1;stroke-miterlimit:10;" d="M 141.733535 -7.088375 L 166.283825 7.087406 L 166.283825 28.345219 L 141.733535 14.173344 L 141.733535 -7.088375 " transform="matrix(1.00002,0,0,-1,1.095662,30.146)"/>
<path style="fill:none;stroke-width:0.3985;stroke-linecap:butt;stroke-linejoin:miter;stroke:rgb(0%,0%,0%);stroke-opacity:1;stroke-miterlimit:10;" d="M 141.733535 -28.346187 L 166.283825 -14.174312 " transform="matrix(1.00002,0,0,-1,1.095662,30.146)"/>
<path style="fill:none;stroke-width:0.3985;stroke-linecap:butt;stroke-linejoin:miter;stroke:rgb(0%,0%,0%);stroke-opacity:1;stroke-miterlimit:10;" d="M 141.733535 -7.088375 L 166.283825 7.087406 " transform="matrix(1.00002,0,0,-1,1.095662,30.146)"/>
<path style="fill-rule:nonzero;fill:rgb(100%,69.999695%,69.999695%);fill-opacity:1;stroke-width:0.3985;stroke-linecap:butt;stroke-linejoin:miter;stroke:rgb(100%,0%,0%);stroke-opacity:1;stroke-miterlimit:10;" d="M 232.442658 -35.432125 L 256.992948 -21.26025 L 265.172472 -7.096187 L 240.622182 -21.268062 L 232.442658 -35.432125 " transform="matrix(1.00002,0,0,-1,1.095662,30.146)"/>
<path style="fill-rule:nonzero;fill:rgb(69.999695%,100%,69.999695%);fill-opacity:1;stroke-width:0.3985;stroke-linecap:butt;stroke-linejoin:miter;stroke:rgb(0%,50%,0%);stroke-opacity:1;stroke-miterlimit:10;" d="M 277.79722 -35.432125 L 302.34751 -21.26025 L 294.167986 -7.096187 L 269.621602 -21.268062 L 277.79722 -35.432125 " transform="matrix(1.00002,0,0,-1,1.095662,30.146)"/>
<path style="fill-rule:nonzero;fill:rgb(69.999695%,69.999695%,100%);fill-opacity:1;stroke-width:0.3985;stroke-linecap:butt;stroke-linejoin:miter;stroke:rgb(0%,0%,100%);stroke-opacity:1;stroke-miterlimit:10;" d="M 226.774803 -21.26025 L 251.325093 -7.088375 L 308.015365 -7.088375 L 283.468981 -21.26025 L 226.774803 -21.26025 " transform="matrix(1.00002,0,0,-1,1.095662,30.146)"/>
<path style="fill-rule:nonzero;fill:rgb(100%,69.999695%,69.999695%);fill-opacity:1;stroke-width:0.3985;stroke-linecap:butt;stroke-linejoin:miter;stroke:rgb(100%,0%,0%);stroke-opacity:1;stroke-miterlimit:10;" d="M 240.622182 -21.268062 L 265.172472 -7.096187 L 279.668276 18.017094 L 255.121892 3.845219 L 240.622182 -21.268062 " transform="matrix(1.00002,0,0,-1,1.095662,30.146)"/>
<path style="fill:none;stroke-width:0.3985;stroke-linecap:butt;stroke-linejoin:miter;stroke:rgb(0%,0%,0%);stroke-opacity:1;stroke-miterlimit:10;" d="M 240.622182 -21.268062 L 265.172472 -7.096187 " transform="matrix(1.00002,0,0,-1,1.095662,30.146)"/>
<path style="fill-rule:nonzero;fill:rgb(69.999695%,100%,69.999695%);fill-opacity:1;stroke-width:0.3985;stroke-linecap:butt;stroke-linejoin:miter;stroke:rgb(0%,50%,0%);stroke-opacity:1;stroke-miterlimit:10;" d="M 269.621602 -21.268062 L 294.167986 -7.096187 L 279.672182 18.017094 L 255.121892 3.845219 L 269.621602 -21.268062 " transform="matrix(1.00002,0,0,-1,1.095662,30.146)"/>
<path style="fill:none;stroke-width:0.3985;stroke-linecap:butt;stroke-linejoin:miter;stroke:rgb(0%,0%,0%);stroke-opacity:1;stroke-miterlimit:10;" d="M 269.621602 -21.268062 L 294.167986 -7.096187 " transform="matrix(1.00002,0,0,-1,1.095662,30.146)"/>
<path style="fill-rule:nonzero;fill:rgb(69.999695%,100%,69.999695%);fill-opacity:1;stroke-width:0.3985;stroke-linecap:butt;stroke-linejoin:miter;stroke:rgb(0%,50%,0%);stroke-opacity:1;stroke-miterlimit:10;" d="M 255.121892 3.845219 L 279.672182 18.017094 L 274.000421 27.837406 L 249.45013 13.665531 L 255.121892 3.845219 " transform="matrix(1.00002,0,0,-1,1.095662,30.146)"/>
<path style="fill-rule:nonzero;fill:rgb(100%,69.999695%,69.999695%);fill-opacity:1;stroke-width:0.3985;stroke-linecap:butt;stroke-linejoin:miter;stroke:rgb(100%,0%,0%);stroke-opacity:1;stroke-miterlimit:10;" d="M 255.121892 3.845219 L 279.672182 18.017094 L 285.340038 27.837406 L 260.789747 13.665531 L 255.121892 3.845219 " transform="matrix(1.00002,0,0,-1,1.095662,30.146)"/>
<path style="fill:none;stroke-width:0.3985;stroke-linecap:butt;stroke-linejoin:miter;stroke:rgb(0%,0%,0%);stroke-opacity:1;stroke-miterlimit:10;" d="M 255.121892 3.845219 L 279.672182 18.017094 " transform="matrix(1.00002,0,0,-1,1.095662,30.146)"/>
</g>
</svg>
