<?xml version="1.0" encoding="UTF-8"?>
<svg xmlns="http://www.w3.org/2000/svg" xmlns:xlink="http://www.w3.org/1999/xlink" width="372pt" height="32pt" viewBox="0 0 372 32" version="1.1">
<g id="surface1">
<path style="fill-rule:nonzero;fill:rgb(75%,75%,75%);fill-opacity:1;stroke-width:0.3985;stroke-linecap:butt;stroke-linejoin:miter;stroke:rgb(0%,0%,0%);stroke-opacity:1;stroke-miterlimit:10;" d="M -0.00191188 -0.00101306 L -0.00191188 28.345793 L 85.039356 28.345793 L 85.039356 -0.00101306 Z M -0.00191188 -0.00101306 " transform="matrix(1.00002,0,0,-1.00003,2.095662,30.147424)"/>
<path style="fill:none;stroke-width:0.3985;stroke-linecap:butt;stroke-linejoin:miter;stroke:rgb(0%,0%,0%);stroke-opacity:1;stroke-miterlimit:10;" d="M 28.345177 -0.00101306 L 28.345177 28.345793 " transform="matrix(1.00002,0,0,-1.00003,2.095662,30.147424)"/>
<path style="fill:none;stroke-width:0.3985;stroke-linecap:butt;stroke-linejoin:miter;stroke:rgb(0%,0%,0%);stroke-opacity:1;stroke-miterlimit:10;" d="M 56.692267 -0.00101306 L 56.692267 28.345793 " transform="matrix(1.00002,0,0,-1.00003,2.095662,30.147424)"/>
<path style="fill-rule:nonzero;fill:rgb(75%,75%,75%);fill-opacity:1;stroke-width:0.3985;stroke-linecap:butt;stroke-linejoin:miter;stroke:rgb(0%,0%,0%);stroke-opacity:1;stroke-miterlimit:10;" d="M 113.386445 -0.00101306 L 113.386445 28.345793 L 198.427713 28.345793 L 198.427713 -0.00101306 Z M 113.386445 -0.00101306 " transform="matrix(1.00002,0,0,-1.00003,2.095662,30.147424)"/>
<path style="fill:none;stroke-width:0.3985;stroke-linecap:butt;stroke-linejoin:miter;stroke:rgb(0%,0%,0%);stroke-opacity:1;stroke-miterlimit:10;" d="M 141.733535 -0.00101306 L 141.733535 28.345793 " transform="matrix(1.00002,0,0,-1.00003,2.095662,30.147424)"/>
<path style="fill:none;stroke-width:0.3985;stroke-linecap:butt;stroke-linejoin:miter;stroke:rgb(0%,0%,0%);stroke-opacity:1;stroke-miterlimit:10;" d="M 170.080624 -0.00101306 L 170.080624 28.345793 " transform="matrix(1.00002,0,0,-1.00003,2.095662,30.147424)"/>
<path style="fill-rule:nonzero;fill:rgb(75%,75%,75%);fill-opacity:1;stroke-width:0.3985;stroke-linecap:butt;stroke-linejoin:miter;stroke:rgb(0%,0%,0%);stroke-opacity:1;stroke-miterlimit:10;" d="M 226.774803 -0.00101306 L 226.774803 28.345793 L 311.816071 28.345793 L 311.816071 -0.00101306 Z M 226.774803 -0.00101306 " transform="matrix(1.00002,0,0,-1.00003,2.095662,30.147424)"/>
<path style="fill:none;stroke-width:0.3985;stroke-linecap:butt;stroke-linejoin:miter;stroke:rgb(0%,0%,0%);stroke-opacity:1;stroke-miterlimit:10;" d="M 255.121892 -0.00101306 L 255.121892 28.345793 " transform="matrix(1.00002,0,0,-1.00003,2.095662,30.147424)"/>
<path style="fill:none;stroke-width:0.3985;stroke-linecap:butt;stroke-linejoin:miter;stroke:rgb(0%,0%,0%);stroke-opacity:1;stroke-miterlimit:10;" d="M 283.468981 -0.00101306 L 283.468981 28.345793 " transform="matrix(1.00002,0,0,-1.00003,2.095662,30.147424)"/>
<path style="fill-rule:nonzero;fill:rgb(75%,75%,75%);fill-opacity:1;stroke-width:0.3985;stroke-linecap:butt;stroke-linejoin:miter;stroke:rgb(0%,0%,0%);stroke-opacity:1;stroke-miterlimit:10;" d="M 340.16316 -0.00101306 L 340.16316 28.345793 L 368.510249 28.345793 L 368.510249 -0.00101306 Z M 340.16316 -0.00101306 " transform="matrix(1.00002,0,0,-1.00003,2.095662,30.147424)"/>
</g>
</svg>
