<?xml version="1.0" encoding="UTF-8"?>
<svg xmlns="http://www.w3.org/2000/svg" xmlns:xlink="http://www.w3.org/1999/xlink" width="311pt" height="75pt" viewBox="0 0 311 75" version="1.1">
<g id="surface1">
<path style="fill-rule:nonzero;fill:rgb(69.999695%,69.999695%,100%);fill-opacity:1;stroke-width:0.3985;stroke-linecap:butt;stroke-linejoin:miter;stroke:rgb(0%,0%,100%);stroke-opacity:1;stroke-miterlimit:10;" d="M -0.00191188 -0.00167448 L 24.548378 14.172973 L 81.242557 14.172973 L 56.692267 -0.00167448 L -0.00191188 -0.00167448 " transform="matrix(1.00002,0,0,-1.00008,1.095662,45.455357)"/>
<path style="fill-rule:nonzero;fill:rgb(100%,69.999695%,69.999695%);fill-opacity:1;stroke-width:0.3985;stroke-linecap:butt;stroke-linejoin:miter;stroke:rgb(100%,0%,0%);stroke-opacity:1;stroke-miterlimit:10;" d="M -0.00191188 1.134953 L 24.548378 15.305695 L 81.242557 15.305695 L 56.692267 1.134953 L -0.00191188 1.134953 " transform="matrix(1.00002,0,0,-1.00008,1.095662,45.455357)"/>
<path style="fill-rule:nonzero;fill:rgb(69.999695%,100%,69.999695%);fill-opacity:1;stroke-width:0.3985;stroke-linecap:butt;stroke-linejoin:miter;stroke:rgb(0%,50%,0%);stroke-opacity:1;stroke-miterlimit:10;" d="M -0.00191188 2.267675 L 24.548378 16.442323 L 81.242557 16.442323 L 56.692267 2.267675 L -0.00191188 2.267675 " transform="matrix(1.00002,0,0,-1.00008,1.095662,45.455357)"/>
<path style="fill-rule:nonzero;fill:rgb(69.999695%,100%,69.999695%);fill-opacity:1;stroke-width:0.3985;stroke-linecap:butt;stroke-linejoin:miter;stroke:rgb(0%,50%,0%);stroke-opacity:1;stroke-miterlimit:10;" d="M 141.733535 -28.347063 L 166.283825 -14.172416 L 166.283825 14.172973 L 141.733535 -0.00167448 L 141.733535 -28.347063 " transform="matrix(1.00002,0,0,-1.00008,1.095662,45.455357)"/>
<path style="fill-rule:nonzero;fill:rgb(69.999695%,69.999695%,100%);fill-opacity:1;stroke-width:0.3985;stroke-linecap:butt;stroke-linejoin:miter;stroke:rgb(0%,0%,100%);stroke-opacity:1;stroke-miterlimit:10;" d="M 113.386445 -0.00167448 L 137.936736 14.172973 L 194.630914 14.172973 L 170.080624 -0.00167448 L 113.386445 -0.00167448 " transform="matrix(1.00002,0,0,-1.00008,1.095662,45.455357)"/>
<path style="fill-rule:nonzero;fill:rgb(100%,69.999695%,69.999695%);fill-opacity:1;stroke-width:0.3985;stroke-linecap:butt;stroke-linejoin:miter;stroke:rgb(100%,0%,0%);stroke-opacity:1;stroke-miterlimit:10;" d="M 113.386445 1.134953 L 137.936736 15.305695 L 194.630914 15.305695 L 170.080624 1.134953 L 113.386445 1.134953 " transform="matrix(1.00002,0,0,-1.00008,1.095662,45.455357)"/>
<path style="fill-rule:nonzero;fill:rgb(69.999695%,100%,69.999695%);fill-opacity:1;stroke-width:0.3985;stroke-linecap:butt;stroke-linejoin:miter;stroke:rgb(0%,50%,0%);stroke-opacity:1;stroke-miterlimit:10;" d="M 141.733535 1.134953 L 166.283825 15.305695 L 166.283825 43.654989 L 141.733535 29.480342 L 141.733535 1.134953 " transform="matrix(1.00002,0,0,-1.00008,1.095662,45.455357)"/>
<path style="fill:none;stroke-width:0.3985;stroke-linecap:butt;stroke-linejoin:miter;stroke:rgb(0%,0%,0%);stroke-opacity:1;stroke-miterlimit:10;" d="M 141.733535 1.134953 L 166.283825 15.305695 " transform="matrix(1.00002,0,0,-1.00008,1.095662,45.455357)"/>
<path style="fill-rule:nonzero;fill:rgb(100%,69.999695%,69.999695%);fill-opacity:1;stroke-width:0.3985;stroke-linecap:butt;stroke-linejoin:miter;stroke:rgb(100%,0%,0%);stroke-opacity:1;stroke-miterlimit:10;" d="M 255.121892 -0.00167448 L 279.672182 14.172973 L 265.496684 -10.375845 L 240.946394 -24.550492 L 255.121892 -0.00167448 " transform="matrix(1.00002,0,0,-1.00008,1.095662,45.455357)"/>
<path style="fill-rule:nonzero;fill:rgb(69.999695%,100%,69.999695%);fill-opacity:1;stroke-width:0.3985;stroke-linecap:butt;stroke-linejoin:miter;stroke:rgb(0%,50%,0%);stroke-opacity:1;stroke-miterlimit:10;" d="M 255.121892 -0.00167448 L 279.672182 14.172973 L 293.843774 -10.375845 L 269.293483 -24.550492 L 255.121892 -0.00167448 " transform="matrix(1.00002,0,0,-1.00008,1.095662,45.455357)"/>
<path style="fill-rule:nonzero;fill:rgb(69.999695%,69.999695%,100%);fill-opacity:1;stroke-width:0.3985;stroke-linecap:butt;stroke-linejoin:miter;stroke:rgb(0%,0%,100%);stroke-opacity:1;stroke-miterlimit:10;" d="M 226.774803 -0.00167448 L 251.325093 14.172973 L 308.015365 14.172973 L 283.468981 -0.00167448 L 226.774803 -0.00167448 " transform="matrix(1.00002,0,0,-1.00008,1.095662,45.455357)"/>
<path style="fill-rule:nonzero;fill:rgb(69.999695%,100%,69.999695%);fill-opacity:1;stroke-width:0.3985;stroke-linecap:butt;stroke-linejoin:miter;stroke:rgb(0%,50%,0%);stroke-opacity:1;stroke-miterlimit:10;" d="M 255.121892 -0.00167448 L 279.672182 14.172973 L 265.496684 38.72179 L 240.946394 24.551049 L 255.121892 -0.00167448 " transform="matrix(1.00002,0,0,-1.00008,1.095662,45.455357)"/>
<path style="fill-rule:nonzero;fill:rgb(100%,69.999695%,69.999695%);fill-opacity:1;stroke-width:0.3985;stroke-linecap:butt;stroke-linejoin:miter;stroke:rgb(100%,0%,0%);stroke-opacity:1;stroke-miterlimit:10;" d="M 255.121892 -0.00167448 L 279.672182 14.172973 L 293.843774 38.72179 L 269.293483 24.551049 L 255.121892 -0.00167448 " transform="matrix(1.00002,0,0,-1.00008,1.095662,45.455357)"/>
<path style="fill:none;stroke-width:0.3985;stroke-linecap:butt;stroke-linejoin:miter;stroke:rgb(0%,0%,0%);stroke-opacity:1;stroke-miterlimit:10;" d="M 255.121892 -0.00167448 L 279.672182 14.172973 " transform="matrix(1.00002,0,0,-1.00008,1.095662,45.455357)"/>
</g>
</svg>
