<?xml version="1.0" encoding="UTF-8"?>
<svg xmlns="http://www.w3.org/2000/svg" xmlns:xlink="http://www.w3.org/1999/xlink" width="145pt" height="145pt" viewBox="0 0 145 145" version="1.1">
<g id="surface1">
<path style="fill:none;stroke-width:0.3985;stroke-linecap:butt;stroke-linejoin:miter;stroke:rgb(50%,50%,50%);stroke-opacity:1;stroke-miterlimit:10;" d="M -70.868236 -70.866686 L 70.865448 -70.866686 M -70.868236 -56.695519 L 70.865448 -56.695519 M -70.868236 -42.520447 L 70.865448 -42.520447 M -70.868236 -28.345374 L 70.865448 -28.345374 M -70.868236 -14.174208 L 70.865448 -14.174208 M -70.868236 0.000864807 L 70.865448 0.000864807 M -70.868236 14.172031 L 70.865448 14.172031 M -70.868236 28.347104 L 70.865448 28.347104 M -70.868236 42.51827 L 70.865448 42.51827 M -70.868236 56.693343 L 70.865448 56.693343 M -70.868236 70.860603 L 70.865448 70.860603 M -70.868236 -70.866686 L -70.868236 70.868415 M -56.693305 -70.866686 L -56.693305 70.868415 M -42.518374 -70.866686 L -42.518374 70.868415 M -28.347349 -70.866686 L -28.347349 70.868415 M -14.172419 -70.866686 L -14.172419 70.868415 M -0.00139389 -70.866686 L -0.00139389 70.868415 M 14.173537 -70.866686 L 14.173537 70.868415 M 28.348468 -70.866686 L 28.348468 70.868415 M 42.519492 -70.866686 L 42.519492 70.868415 M 56.694423 -70.866686 L 56.694423 70.868415 M 70.861542 -70.866686 L 70.861542 70.868415 " transform="matrix(1.00006,0,0,-1.00005,72.966238,72.668834)"/>
</g>
</svg>
