<?xml version="1.0" encoding="UTF-8"?>
<svg xmlns="http://www.w3.org/2000/svg" xmlns:xlink="http://www.w3.org/1999/xlink" width="137pt" height="73pt" viewBox="0 0 137 73" version="1.1">
<g id="surface1">
<path style="fill-rule:nonzero;fill:rgb(50%,100%,50%);fill-opacity:1;stroke-width:1.59404;stroke-linecap:butt;stroke-linejoin:miter;stroke:rgb(0%,0%,0%);stroke-opacity:1;stroke-miterlimit:10;" d="M 85.042907 -0.00032775 L 85.042907 68.034653 L 93.546643 68.034653 L 93.546643 -0.00032775 Z M 85.042907 -0.00032775 " transform="matrix(1.00002,0,0,-1.00006,2.693674,70.433266)"/>
<path style="fill:none;stroke-width:0.3985;stroke-linecap:butt;stroke-linejoin:miter;stroke:rgb(0%,0%,0%);stroke-opacity:1;stroke-miterlimit:10;" d="M 85.042907 8.503068 L 93.546643 8.503068 " transform="matrix(1.00002,0,0,-1.00006,2.693674,70.433266)"/>
<path style="fill:none;stroke-width:0.3985;stroke-linecap:butt;stroke-linejoin:miter;stroke:rgb(0%,0%,0%);stroke-opacity:1;stroke-miterlimit:10;" d="M 85.042907 17.006464 L 93.546643 17.006464 " transform="matrix(1.00002,0,0,-1.00006,2.693674,70.433266)"/>
<path style="fill:none;stroke-width:0.3985;stroke-linecap:butt;stroke-linejoin:miter;stroke:rgb(0%,0%,0%);stroke-opacity:1;stroke-miterlimit:10;" d="M 85.042907 25.513766 L 93.546643 25.513766 " transform="matrix(1.00002,0,0,-1.00006,2.693674,70.433266)"/>
<path style="fill:none;stroke-width:0.3985;stroke-linecap:butt;stroke-linejoin:miter;stroke:rgb(0%,0%,0%);stroke-opacity:1;stroke-miterlimit:10;" d="M 85.042907 34.017162 L 93.546643 34.017162 " transform="matrix(1.00002,0,0,-1.00006,2.693674,70.433266)"/>
<path style="fill:none;stroke-width:0.3985;stroke-linecap:butt;stroke-linejoin:miter;stroke:rgb(0%,0%,0%);stroke-opacity:1;stroke-miterlimit:10;" d="M 85.042907 42.520558 L 93.546643 42.520558 " transform="matrix(1.00002,0,0,-1.00006,2.693674,70.433266)"/>
<path style="fill:none;stroke-width:0.3985;stroke-linecap:butt;stroke-linejoin:miter;stroke:rgb(0%,0%,0%);stroke-opacity:1;stroke-miterlimit:10;" d="M 85.042907 51.023955 L 93.546643 51.023955 " transform="matrix(1.00002,0,0,-1.00006,2.693674,70.433266)"/>
<path style="fill:none;stroke-width:0.3985;stroke-linecap:butt;stroke-linejoin:miter;stroke:rgb(0%,0%,0%);stroke-opacity:1;stroke-miterlimit:10;" d="M 85.042907 59.527351 L 93.546643 59.527351 " transform="matrix(1.00002,0,0,-1.00006,2.693674,70.433266)"/>
<path style="fill-rule:nonzero;fill:rgb(50%,100%,50%);fill-opacity:1;stroke-width:1.59404;stroke-linecap:butt;stroke-linejoin:miter;stroke:rgb(0%,0%,0%);stroke-opacity:1;stroke-miterlimit:10;" d="M 97.796558 -0.00032775 L 97.796558 68.034653 L 106.300294 68.034653 L 106.300294 -0.00032775 Z M 97.796558 -0.00032775 " transform="matrix(1.00002,0,0,-1.00006,2.693674,70.433266)"/>
<path style="fill:none;stroke-width:0.3985;stroke-linecap:butt;stroke-linejoin:miter;stroke:rgb(0%,0%,0%);stroke-opacity:1;stroke-miterlimit:10;" d="M 97.796558 8.503068 L 106.300294 8.503068 " transform="matrix(1.00002,0,0,-1.00006,2.693674,70.433266)"/>
<path style="fill:none;stroke-width:0.3985;stroke-linecap:butt;stroke-linejoin:miter;stroke:rgb(0%,0%,0%);stroke-opacity:1;stroke-miterlimit:10;" d="M 97.796558 17.006464 L 106.300294 17.006464 " transform="matrix(1.00002,0,0,-1.00006,2.693674,70.433266)"/>
<path style="fill:none;stroke-width:0.3985;stroke-linecap:butt;stroke-linejoin:miter;stroke:rgb(0%,0%,0%);stroke-opacity:1;stroke-miterlimit:10;" d="M 97.796558 25.513766 L 106.300294 25.513766 " transform="matrix(1.00002,0,0,-1.00006,2.693674,70.433266)"/>
<path style="fill:none;stroke-width:0.3985;stroke-linecap:butt;stroke-linejoin:miter;stroke:rgb(0%,0%,0%);stroke-opacity:1;stroke-miterlimit:10;" d="M 97.796558 34.017162 L 106.300294 34.017162 " transform="matrix(1.00002,0,0,-1.00006,2.693674,70.433266)"/>
<path style="fill:none;stroke-width:0.3985;stroke-linecap:butt;stroke-linejoin:miter;stroke:rgb(0%,0%,0%);stroke-opacity:1;stroke-miterlimit:10;" d="M 97.796558 42.520558 L 106.300294 42.520558 " transform="matrix(1.00002,0,0,-1.00006,2.693674,70.433266)"/>
<path style="fill:none;stroke-width:0.3985;stroke-linecap:butt;stroke-linejoin:miter;stroke:rgb(0%,0%,0%);stroke-opacity:1;stroke-miterlimit:10;" d="M 97.796558 51.023955 L 106.300294 51.023955 " transform="matrix(1.00002,0,0,-1.00006,2.693674,70.433266)"/>
<path style="fill:none;stroke-width:0.3985;stroke-linecap:butt;stroke-linejoin:miter;stroke:rgb(0%,0%,0%);stroke-opacity:1;stroke-miterlimit:10;" d="M 97.796558 59.527351 L 106.300294 59.527351 " transform="matrix(1.00002,0,0,-1.00006,2.693674,70.433266)"/>
<path style="fill-rule:nonzero;fill:rgb(100%,50%,50%);fill-opacity:1;stroke-width:1.59404;stroke-linecap:butt;stroke-linejoin:miter;stroke:rgb(0%,0%,0%);stroke-opacity:1;stroke-miterlimit:10;" d="M 0.00163859 -0.00032775 L 0.00163859 68.034653 L 68.031528 68.034653 L 68.031528 -0.00032775 Z M 0.00163859 -0.00032775 " transform="matrix(1.00002,0,0,-1.00006,2.693674,70.433266)"/>
<path style="fill:none;stroke-width:0.3985;stroke-linecap:butt;stroke-linejoin:miter;stroke:rgb(0%,0%,0%);stroke-opacity:1;stroke-miterlimit:10;" d="M 0.00163859 8.503068 L 68.031528 8.503068 " transform="matrix(1.00002,0,0,-1.00006,2.693674,70.433266)"/>
<path style="fill:none;stroke-width:0.3985;stroke-linecap:butt;stroke-linejoin:miter;stroke:rgb(0%,0%,0%);stroke-opacity:1;stroke-miterlimit:10;" d="M 0.00163859 17.006464 L 68.031528 17.006464 " transform="matrix(1.00002,0,0,-1.00006,2.693674,70.433266)"/>
<path style="fill:none;stroke-width:0.3985;stroke-linecap:butt;stroke-linejoin:miter;stroke:rgb(0%,0%,0%);stroke-opacity:1;stroke-miterlimit:10;" d="M 0.00163859 25.513766 L 68.031528 25.513766 " transform="matrix(1.00002,0,0,-1.00006,2.693674,70.433266)"/>
<path style="fill:none;stroke-width:0.3985;stroke-linecap:butt;stroke-linejoin:miter;stroke:rgb(0%,0%,0%);stroke-opacity:1;stroke-miterlimit:10;" d="M 0.00163859 34.017162 L 68.031528 34.017162 " transform="matrix(1.00002,0,0,-1.00006,2.693674,70.433266)"/>
<path style="fill:none;stroke-width:0.3985;stroke-linecap:butt;stroke-linejoin:miter;stroke:rgb(0%,0%,0%);stroke-opacity:1;stroke-miterlimit:10;" d="M 0.00163859 42.520558 L 68.031528 42.520558 " transform="matrix(1.00002,0,0,-1.00006,2.693674,70.433266)"/>
<path style="fill:none;stroke-width:0.3985;stroke-linecap:butt;stroke-linejoin:miter;stroke:rgb(0%,0%,0%);stroke-opacity:1;stroke-miterlimit:10;" d="M 0.00163859 51.023955 L 68.031528 51.023955 " transform="matrix(1.00002,0,0,-1.00006,2.693674,70.433266)"/>
<path style="fill:none;stroke-width:0.3985;stroke-linecap:butt;stroke-linejoin:miter;stroke:rgb(0%,0%,0%);stroke-opacity:1;stroke-miterlimit:10;" d="M 0.00163859 59.527351 L 68.031528 59.527351 " transform="matrix(1.00002,0,0,-1.00006,2.693674,70.433266)"/>
<path style="fill:none;stroke-width:0.3985;stroke-linecap:butt;stroke-linejoin:miter;stroke:rgb(0%,0%,0%);stroke-opacity:1;stroke-miterlimit:10;" d="M 8.505375 -0.00032775 L 8.505375 68.034653 " transform="matrix(1.00002,0,0,-1.00006,2.693674,70.433266)"/>
<path style="fill:none;stroke-width:0.3985;stroke-linecap:butt;stroke-linejoin:miter;stroke:rgb(0%,0%,0%);stroke-opacity:1;stroke-miterlimit:10;" d="M 17.009111 -0.00032775 L 17.009111 68.034653 " transform="matrix(1.00002,0,0,-1.00006,2.693674,70.433266)"/>
<path style="fill:none;stroke-width:0.3985;stroke-linecap:butt;stroke-linejoin:miter;stroke:rgb(0%,0%,0%);stroke-opacity:1;stroke-miterlimit:10;" d="M 25.512847 -0.00032775 L 25.512847 68.034653 " transform="matrix(1.00002,0,0,-1.00006,2.693674,70.433266)"/>
<path style="fill:none;stroke-width:0.3985;stroke-linecap:butt;stroke-linejoin:miter;stroke:rgb(0%,0%,0%);stroke-opacity:1;stroke-miterlimit:10;" d="M 34.016583 -0.00032775 L 34.016583 68.034653 " transform="matrix(1.00002,0,0,-1.00006,2.693674,70.433266)"/>
<path style="fill:none;stroke-width:0.3985;stroke-linecap:butt;stroke-linejoin:miter;stroke:rgb(0%,0%,0%);stroke-opacity:1;stroke-miterlimit:10;" d="M 42.520319 -0.00032775 L 42.520319 68.034653 " transform="matrix(1.00002,0,0,-1.00006,2.693674,70.433266)"/>
<path style="fill:none;stroke-width:0.3985;stroke-linecap:butt;stroke-linejoin:miter;stroke:rgb(0%,0%,0%);stroke-opacity:1;stroke-miterlimit:10;" d="M 51.024056 -0.00032775 L 51.024056 68.034653 " transform="matrix(1.00002,0,0,-1.00006,2.693674,70.433266)"/>
<path style="fill:none;stroke-width:0.3985;stroke-linecap:butt;stroke-linejoin:miter;stroke:rgb(0%,0%,0%);stroke-opacity:1;stroke-miterlimit:10;" d="M 59.527792 -0.00032775 L 59.527792 68.034653 " transform="matrix(1.00002,0,0,-1.00006,2.693674,70.433266)"/>
<path style="fill-rule:nonzero;fill:rgb(50%,50%,100%);fill-opacity:1;stroke-width:0.3985;stroke-linecap:butt;stroke-linejoin:miter;stroke:rgb(0%,0%,0%);stroke-opacity:1;stroke-miterlimit:10;" d="M 123.311672 -0.00032775 L 123.311672 59.527351 L 131.815409 59.527351 L 131.815409 -0.00032775 Z M 123.311672 -0.00032775 " transform="matrix(1.00002,0,0,-1.00006,2.693674,70.433266)"/>
<path style="fill:none;stroke-width:1.59404;stroke-linecap:butt;stroke-linejoin:miter;stroke:rgb(0%,0%,0%);stroke-opacity:1;stroke-miterlimit:10;" d="M 123.311672 -0.00032775 L 131.815409 -0.00032775 M 123.311672 8.503068 L 131.815409 8.503068 M 123.311672 17.006464 L 131.815409 17.006464 M 123.311672 25.513766 L 131.815409 25.513766 M 123.311672 34.017162 L 131.815409 34.017162 M 123.311672 42.520558 L 131.815409 42.520558 M 123.311672 51.023955 L 131.815409 51.023955 M 123.311672 59.527351 L 131.815409 59.527351 M 123.311672 -0.00032775 L 123.311672 59.527351 M 131.811502 -0.00032775 L 131.811502 59.527351 " transform="matrix(1.00002,0,0,-1.00006,2.693674,70.433266)"/>
<path style="fill:none;stroke-width:1.59404;stroke-linecap:butt;stroke-linejoin:miter;stroke:rgb(0%,0%,0%);stroke-opacity:1;stroke-miterlimit:10;" d="M 123.311672 -0.00032775 L 123.311672 59.527351 L 131.815409 59.527351 L 131.815409 -0.00032775 Z M 123.311672 -0.00032775 " transform="matrix(1.00002,0,0,-1.00006,2.693674,70.433266)"/>
</g>
</svg>
