<?xml version="1.0" encoding="UTF-8"?>
<svg xmlns="http://www.w3.org/2000/svg" xmlns:xlink="http://www.w3.org/1999/xlink" width="289pt" height="93pt" viewBox="0 0 289 93" version="1.1">
<g id="surface1">
<path style="fill-rule:nonzero;fill:rgb(50%,50%,100%);fill-opacity:1;stroke-width:1.59404;stroke-linecap:butt;stroke-linejoin:miter;stroke:rgb(0%,0%,0%);stroke-opacity:1;stroke-miterlimit:10;" d="M -0.00164036 -0.00126301 L -0.00164036 8.502388 L 8.505917 8.502388 L 8.505917 -0.00126301 Z M -0.00164036 -0.00126301 " transform="matrix(1.00003,0,0,-1.00003,62.224297,87.440143)"/>
<path style="fill-rule:nonzero;fill:rgb(50%,50%,100%);fill-opacity:1;stroke-width:1.59404;stroke-linecap:butt;stroke-linejoin:miter;stroke:rgb(0%,0%,0%);stroke-opacity:1;stroke-miterlimit:10;" d="M 24.052326 24.052703 L 18.040787 30.064241 L 24.052326 36.079686 L 30.063864 30.064241 Z M 24.052326 24.052703 " transform="matrix(1.00003,0,0,-1.00003,62.224297,87.440143)"/>
<path style="fill-rule:nonzero;fill:rgb(50%,50%,100%);fill-opacity:1;stroke-width:1.59404;stroke-linecap:butt;stroke-linejoin:miter;stroke:rgb(0%,0%,0%);stroke-opacity:1;stroke-miterlimit:10;" d="M -59.527198 25.513597 L -59.527198 34.017248 L -51.023547 34.017248 L -51.023547 25.513597 Z M -59.527198 25.513597 " transform="matrix(1.00003,0,0,-1.00003,62.224297,87.440143)"/>
<path style="fill-rule:nonzero;fill:rgb(50%,50%,100%);fill-opacity:1;stroke-width:1.59404;stroke-linecap:butt;stroke-linejoin:miter;stroke:rgb(0%,0%,0%);stroke-opacity:1;stroke-miterlimit:10;" d="M -51.023547 59.528201 L -51.023547 68.031852 L -42.519896 68.031852 L -42.519896 59.528201 Z M -51.023547 59.528201 " transform="matrix(1.00003,0,0,-1.00003,62.224297,87.440143)"/>
<path style="fill-rule:nonzero;fill:rgb(50%,50%,100%);fill-opacity:1;stroke-width:1.59404;stroke-linecap:butt;stroke-linejoin:miter;stroke:rgb(0%,0%,0%);stroke-opacity:1;stroke-miterlimit:10;" d="M 41.071346 11.002313 L 38.872193 19.21691 L 47.086791 21.419969 L 49.285944 13.205372 Z M 41.071346 11.002313 " transform="matrix(1.00003,0,0,-1.00003,62.224297,87.440143)"/>
<path style="fill-rule:nonzero;fill:rgb(50%,50%,100%);fill-opacity:1;stroke-width:1.59404;stroke-linecap:butt;stroke-linejoin:miter;stroke:rgb(0%,0%,0%);stroke-opacity:1;stroke-miterlimit:10;" d="M 71.140757 63.078876 L 68.937698 71.293473 L 77.152295 73.492626 L 79.355354 65.278029 Z M 71.140757 63.078876 " transform="matrix(1.00003,0,0,-1.00003,62.224297,87.440143)"/>
<path style="fill-rule:nonzero;fill:rgb(50%,50%,100%);fill-opacity:1;stroke-width:1.59404;stroke-linecap:butt;stroke-linejoin:miter;stroke:rgb(0%,0%,0%);stroke-opacity:1;stroke-miterlimit:10;" d="M 217.523084 71.504404 L 212.054498 78.019834 L 218.569927 83.484514 L 224.034607 76.969084 Z M 217.523084 71.504404 " transform="matrix(1.00003,0,0,-1.00003,62.224297,87.440143)"/>
<path style="fill-rule:nonzero;fill:rgb(50%,50%,100%);fill-opacity:1;stroke-width:1.59404;stroke-linecap:butt;stroke-linejoin:miter;stroke:rgb(0%,0%,0%);stroke-opacity:1;stroke-miterlimit:10;" d="M 185.262333 13.131156 L 182.35617 21.119197 L 190.348118 24.029266 L 193.254281 16.037318 Z M 185.262333 13.131156 " transform="matrix(1.00003,0,0,-1.00003,62.224297,87.440143)"/>
<path style="fill-rule:nonzero;fill:rgb(50%,100%,50%);fill-opacity:1;stroke-width:1.59404;stroke-linecap:butt;stroke-linejoin:miter;stroke:rgb(0%,0%,0%);stroke-opacity:1;stroke-miterlimit:10;" d="M 42.520521 42.520899 L -42.519896 42.520899 L -42.519896 51.02455 L 42.520521 51.02455 Z M 42.520521 42.520899 " transform="matrix(1.00003,0,0,-1.00003,62.224297,87.440143)"/>
<path style="fill:none;stroke-width:0.3985;stroke-linecap:butt;stroke-linejoin:miter;stroke:rgb(0%,0%,0%);stroke-opacity:1;stroke-miterlimit:10;" d="M 34.01687 42.520899 L 34.01687 51.02455 " transform="matrix(1.00003,0,0,-1.00003,62.224297,87.440143)"/>
<path style="fill:none;stroke-width:0.3985;stroke-linecap:butt;stroke-linejoin:miter;stroke:rgb(0%,0%,0%);stroke-opacity:1;stroke-miterlimit:10;" d="M 25.513219 42.520899 L 25.513219 51.02455 " transform="matrix(1.00003,0,0,-1.00003,62.224297,87.440143)"/>
<path style="fill:none;stroke-width:0.3985;stroke-linecap:butt;stroke-linejoin:miter;stroke:rgb(0%,0%,0%);stroke-opacity:1;stroke-miterlimit:10;" d="M 17.009568 42.520899 L 17.009568 51.02455 " transform="matrix(1.00003,0,0,-1.00003,62.224297,87.440143)"/>
<path style="fill:none;stroke-width:0.3985;stroke-linecap:butt;stroke-linejoin:miter;stroke:rgb(0%,0%,0%);stroke-opacity:1;stroke-miterlimit:10;" d="M 8.505917 42.520899 L 8.505917 51.02455 " transform="matrix(1.00003,0,0,-1.00003,62.224297,87.440143)"/>
<path style="fill:none;stroke-width:0.3985;stroke-linecap:butt;stroke-linejoin:miter;stroke:rgb(0%,0%,0%);stroke-opacity:1;stroke-miterlimit:10;" d="M -0.00164036 42.520899 L -0.00164036 51.02455 " transform="matrix(1.00003,0,0,-1.00003,62.224297,87.440143)"/>
<path style="fill:none;stroke-width:0.3985;stroke-linecap:butt;stroke-linejoin:miter;stroke:rgb(0%,0%,0%);stroke-opacity:1;stroke-miterlimit:10;" d="M -8.505292 42.520899 L -8.505292 51.02455 " transform="matrix(1.00003,0,0,-1.00003,62.224297,87.440143)"/>
<path style="fill:none;stroke-width:0.3985;stroke-linecap:butt;stroke-linejoin:miter;stroke:rgb(0%,0%,0%);stroke-opacity:1;stroke-miterlimit:10;" d="M -17.008943 42.520899 L -17.008943 51.02455 " transform="matrix(1.00003,0,0,-1.00003,62.224297,87.440143)"/>
<path style="fill:none;stroke-width:0.3985;stroke-linecap:butt;stroke-linejoin:miter;stroke:rgb(0%,0%,0%);stroke-opacity:1;stroke-miterlimit:10;" d="M -25.512594 42.520899 L -25.512594 51.02455 " transform="matrix(1.00003,0,0,-1.00003,62.224297,87.440143)"/>
<path style="fill:none;stroke-width:0.3985;stroke-linecap:butt;stroke-linejoin:miter;stroke:rgb(0%,0%,0%);stroke-opacity:1;stroke-miterlimit:10;" d="M -34.016245 42.520899 L -34.016245 51.02455 " transform="matrix(1.00003,0,0,-1.00003,62.224297,87.440143)"/>
<path style="fill-rule:nonzero;fill:rgb(50%,100%,50%);fill-opacity:1;stroke-width:1.59404;stroke-linecap:butt;stroke-linejoin:miter;stroke:rgb(0%,0%,0%);stroke-opacity:1;stroke-miterlimit:10;" d="M 80.175642 -2.805866 L 37.657386 70.836456 L 45.020446 75.090234 L 87.538702 1.444006 Z M 80.175642 -2.805866 " transform="matrix(1.00003,0,0,-1.00003,62.224297,87.440143)"/>
<path style="fill:none;stroke-width:0.3985;stroke-linecap:butt;stroke-linejoin:miter;stroke:rgb(0%,0%,0%);stroke-opacity:1;stroke-miterlimit:10;" d="M 75.921863 4.557194 L 83.28883 8.810973 " transform="matrix(1.00003,0,0,-1.00003,62.224297,87.440143)"/>
<path style="fill:none;stroke-width:0.3985;stroke-linecap:butt;stroke-linejoin:miter;stroke:rgb(0%,0%,0%);stroke-opacity:1;stroke-miterlimit:10;" d="M 71.671991 11.920254 L 79.035051 16.174033 " transform="matrix(1.00003,0,0,-1.00003,62.224297,87.440143)"/>
<path style="fill:none;stroke-width:0.3985;stroke-linecap:butt;stroke-linejoin:miter;stroke:rgb(0%,0%,0%);stroke-opacity:1;stroke-miterlimit:10;" d="M 67.418212 19.287221 L 74.781272 23.537093 " transform="matrix(1.00003,0,0,-1.00003,62.224297,87.440143)"/>
<path style="fill:none;stroke-width:0.3985;stroke-linecap:butt;stroke-linejoin:miter;stroke:rgb(0%,0%,0%);stroke-opacity:1;stroke-miterlimit:10;" d="M 63.16834 26.650281 L 70.5314 30.90406 " transform="matrix(1.00003,0,0,-1.00003,62.224297,87.440143)"/>
<path style="fill:none;stroke-width:0.3985;stroke-linecap:butt;stroke-linejoin:miter;stroke:rgb(0%,0%,0%);stroke-opacity:1;stroke-miterlimit:10;" d="M 58.914561 34.013342 L 66.277621 38.26712 " transform="matrix(1.00003,0,0,-1.00003,62.224297,87.440143)"/>
<path style="fill:none;stroke-width:0.3985;stroke-linecap:butt;stroke-linejoin:miter;stroke:rgb(0%,0%,0%);stroke-opacity:1;stroke-miterlimit:10;" d="M 54.664688 41.380308 L 62.027749 45.630181 " transform="matrix(1.00003,0,0,-1.00003,62.224297,87.440143)"/>
<path style="fill:none;stroke-width:0.3985;stroke-linecap:butt;stroke-linejoin:miter;stroke:rgb(0%,0%,0%);stroke-opacity:1;stroke-miterlimit:10;" d="M 50.41091 48.743368 L 57.77397 52.997147 " transform="matrix(1.00003,0,0,-1.00003,62.224297,87.440143)"/>
<path style="fill:none;stroke-width:0.3985;stroke-linecap:butt;stroke-linejoin:miter;stroke:rgb(0%,0%,0%);stroke-opacity:1;stroke-miterlimit:10;" d="M 46.161037 56.106429 L 53.524098 60.360207 " transform="matrix(1.00003,0,0,-1.00003,62.224297,87.440143)"/>
<path style="fill:none;stroke-width:0.3985;stroke-linecap:butt;stroke-linejoin:miter;stroke:rgb(0%,0%,0%);stroke-opacity:1;stroke-miterlimit:10;" d="M 41.907259 63.473395 L 49.270319 67.723268 " transform="matrix(1.00003,0,0,-1.00003,62.224297,87.440143)"/>
<path style="fill-rule:nonzero;fill:rgb(50%,100%,50%);fill-opacity:1;stroke-width:1.59404;stroke-linecap:butt;stroke-linejoin:miter;stroke:rgb(0%,0%,0%);stroke-opacity:1;stroke-miterlimit:10;" d="M 195.594054 -0.00126301 L 195.594054 85.043061 L 204.097705 85.043061 L 204.097705 -0.00126301 Z M 195.594054 -0.00126301 " transform="matrix(1.00003,0,0,-1.00003,62.224297,87.440143)"/>
<path style="fill:none;stroke-width:0.3985;stroke-linecap:butt;stroke-linejoin:miter;stroke:rgb(0%,0%,0%);stroke-opacity:1;stroke-miterlimit:10;" d="M 195.594054 8.502388 L 204.097705 8.502388 " transform="matrix(1.00003,0,0,-1.00003,62.224297,87.440143)"/>
<path style="fill:none;stroke-width:0.3985;stroke-linecap:butt;stroke-linejoin:miter;stroke:rgb(0%,0%,0%);stroke-opacity:1;stroke-miterlimit:10;" d="M 195.594054 17.009945 L 204.097705 17.009945 " transform="matrix(1.00003,0,0,-1.00003,62.224297,87.440143)"/>
<path style="fill:none;stroke-width:0.3985;stroke-linecap:butt;stroke-linejoin:miter;stroke:rgb(0%,0%,0%);stroke-opacity:1;stroke-miterlimit:10;" d="M 195.594054 25.513597 L 204.097705 25.513597 " transform="matrix(1.00003,0,0,-1.00003,62.224297,87.440143)"/>
<path style="fill:none;stroke-width:0.3985;stroke-linecap:butt;stroke-linejoin:miter;stroke:rgb(0%,0%,0%);stroke-opacity:1;stroke-miterlimit:10;" d="M 195.594054 34.017248 L 204.097705 34.017248 " transform="matrix(1.00003,0,0,-1.00003,62.224297,87.440143)"/>
<path style="fill:none;stroke-width:0.3985;stroke-linecap:butt;stroke-linejoin:miter;stroke:rgb(0%,0%,0%);stroke-opacity:1;stroke-miterlimit:10;" d="M 195.594054 42.520899 L 204.097705 42.520899 " transform="matrix(1.00003,0,0,-1.00003,62.224297,87.440143)"/>
<path style="fill:none;stroke-width:0.3985;stroke-linecap:butt;stroke-linejoin:miter;stroke:rgb(0%,0%,0%);stroke-opacity:1;stroke-miterlimit:10;" d="M 195.594054 51.02455 L 204.097705 51.02455 " transform="matrix(1.00003,0,0,-1.00003,62.224297,87.440143)"/>
<path style="fill:none;stroke-width:0.3985;stroke-linecap:butt;stroke-linejoin:miter;stroke:rgb(0%,0%,0%);stroke-opacity:1;stroke-miterlimit:10;" d="M 195.594054 59.528201 L 204.097705 59.528201 " transform="matrix(1.00003,0,0,-1.00003,62.224297,87.440143)"/>
<path style="fill:none;stroke-width:0.3985;stroke-linecap:butt;stroke-linejoin:miter;stroke:rgb(0%,0%,0%);stroke-opacity:1;stroke-miterlimit:10;" d="M 195.594054 68.031852 L 204.097705 68.031852 " transform="matrix(1.00003,0,0,-1.00003,62.224297,87.440143)"/>
<path style="fill:none;stroke-width:0.3985;stroke-linecap:butt;stroke-linejoin:miter;stroke:rgb(0%,0%,0%);stroke-opacity:1;stroke-miterlimit:10;" d="M 195.594054 76.535503 L 204.097705 76.535503 " transform="matrix(1.00003,0,0,-1.00003,62.224297,87.440143)"/>
<path style="fill-rule:nonzero;fill:rgb(100%,50%,50%);fill-opacity:1;stroke-width:1.59404;stroke-linecap:butt;stroke-linejoin:miter;stroke:rgb(0%,0%,0%);stroke-opacity:1;stroke-miterlimit:10;" d="M 93.546334 -0.00126301 L 93.546334 85.043061 L 178.586752 85.043061 L 178.586752 -0.00126301 Z M 93.546334 -0.00126301 " transform="matrix(1.00003,0,0,-1.00003,62.224297,87.440143)"/>
<path style="fill:none;stroke-width:0.3985;stroke-linecap:butt;stroke-linejoin:miter;stroke:rgb(0%,0%,0%);stroke-opacity:1;stroke-miterlimit:10;" d="M 93.546334 8.502388 L 178.586752 8.502388 " transform="matrix(1.00003,0,0,-1.00003,62.224297,87.440143)"/>
<path style="fill:none;stroke-width:0.3985;stroke-linecap:butt;stroke-linejoin:miter;stroke:rgb(0%,0%,0%);stroke-opacity:1;stroke-miterlimit:10;" d="M 93.546334 17.009945 L 178.586752 17.009945 " transform="matrix(1.00003,0,0,-1.00003,62.224297,87.440143)"/>
<path style="fill:none;stroke-width:0.3985;stroke-linecap:butt;stroke-linejoin:miter;stroke:rgb(0%,0%,0%);stroke-opacity:1;stroke-miterlimit:10;" d="M 93.546334 25.513597 L 178.586752 25.513597 " transform="matrix(1.00003,0,0,-1.00003,62.224297,87.440143)"/>
<path style="fill:none;stroke-width:0.3985;stroke-linecap:butt;stroke-linejoin:miter;stroke:rgb(0%,0%,0%);stroke-opacity:1;stroke-miterlimit:10;" d="M 93.546334 34.017248 L 178.586752 34.017248 " transform="matrix(1.00003,0,0,-1.00003,62.224297,87.440143)"/>
<path style="fill:none;stroke-width:0.3985;stroke-linecap:butt;stroke-linejoin:miter;stroke:rgb(0%,0%,0%);stroke-opacity:1;stroke-miterlimit:10;" d="M 93.546334 42.520899 L 178.586752 42.520899 " transform="matrix(1.00003,0,0,-1.00003,62.224297,87.440143)"/>
<path style="fill:none;stroke-width:0.3985;stroke-linecap:butt;stroke-linejoin:miter;stroke:rgb(0%,0%,0%);stroke-opacity:1;stroke-miterlimit:10;" d="M 93.546334 51.02455 L 178.586752 51.02455 " transform="matrix(1.00003,0,0,-1.00003,62.224297,87.440143)"/>
<path style="fill:none;stroke-width:0.3985;stroke-linecap:butt;stroke-linejoin:miter;stroke:rgb(0%,0%,0%);stroke-opacity:1;stroke-miterlimit:10;" d="M 93.546334 59.528201 L 178.586752 59.528201 " transform="matrix(1.00003,0,0,-1.00003,62.224297,87.440143)"/>
<path style="fill:none;stroke-width:0.3985;stroke-linecap:butt;stroke-linejoin:miter;stroke:rgb(0%,0%,0%);stroke-opacity:1;stroke-miterlimit:10;" d="M 93.546334 68.031852 L 178.586752 68.031852 " transform="matrix(1.00003,0,0,-1.00003,62.224297,87.440143)"/>
<path style="fill:none;stroke-width:0.3985;stroke-linecap:butt;stroke-linejoin:miter;stroke:rgb(0%,0%,0%);stroke-opacity:1;stroke-miterlimit:10;" d="M 93.546334 76.535503 L 178.586752 76.535503 " transform="matrix(1.00003,0,0,-1.00003,62.224297,87.440143)"/>
<path style="fill:none;stroke-width:0.3985;stroke-linecap:butt;stroke-linejoin:miter;stroke:rgb(0%,0%,0%);stroke-opacity:1;stroke-miterlimit:10;" d="M 102.049986 -0.00126301 L 102.049986 85.043061 " transform="matrix(1.00003,0,0,-1.00003,62.224297,87.440143)"/>
<path style="fill:none;stroke-width:0.3985;stroke-linecap:butt;stroke-linejoin:miter;stroke:rgb(0%,0%,0%);stroke-opacity:1;stroke-miterlimit:10;" d="M 110.553637 -0.00126301 L 110.553637 85.043061 " transform="matrix(1.00003,0,0,-1.00003,62.224297,87.440143)"/>
<path style="fill:none;stroke-width:0.3985;stroke-linecap:butt;stroke-linejoin:miter;stroke:rgb(0%,0%,0%);stroke-opacity:1;stroke-miterlimit:10;" d="M 119.057288 -0.00126301 L 119.057288 85.043061 " transform="matrix(1.00003,0,0,-1.00003,62.224297,87.440143)"/>
<path style="fill:none;stroke-width:0.3985;stroke-linecap:butt;stroke-linejoin:miter;stroke:rgb(0%,0%,0%);stroke-opacity:1;stroke-miterlimit:10;" d="M 127.560939 -0.00126301 L 127.560939 85.043061 " transform="matrix(1.00003,0,0,-1.00003,62.224297,87.440143)"/>
<path style="fill:none;stroke-width:0.3985;stroke-linecap:butt;stroke-linejoin:miter;stroke:rgb(0%,0%,0%);stroke-opacity:1;stroke-miterlimit:10;" d="M 136.06459 -0.00126301 L 136.06459 85.043061 " transform="matrix(1.00003,0,0,-1.00003,62.224297,87.440143)"/>
<path style="fill:none;stroke-width:0.3985;stroke-linecap:butt;stroke-linejoin:miter;stroke:rgb(0%,0%,0%);stroke-opacity:1;stroke-miterlimit:10;" d="M 144.568241 -0.00126301 L 144.568241 85.043061 " transform="matrix(1.00003,0,0,-1.00003,62.224297,87.440143)"/>
<path style="fill:none;stroke-width:0.3985;stroke-linecap:butt;stroke-linejoin:miter;stroke:rgb(0%,0%,0%);stroke-opacity:1;stroke-miterlimit:10;" d="M 153.075799 -0.00126301 L 153.075799 85.043061 " transform="matrix(1.00003,0,0,-1.00003,62.224297,87.440143)"/>
<path style="fill:none;stroke-width:0.3985;stroke-linecap:butt;stroke-linejoin:miter;stroke:rgb(0%,0%,0%);stroke-opacity:1;stroke-miterlimit:10;" d="M 161.57945 -0.00126301 L 161.57945 85.043061 " transform="matrix(1.00003,0,0,-1.00003,62.224297,87.440143)"/>
<path style="fill:none;stroke-width:0.3985;stroke-linecap:butt;stroke-linejoin:miter;stroke:rgb(0%,0%,0%);stroke-opacity:1;stroke-miterlimit:10;" d="M 170.083101 -0.00126301 L 170.083101 85.043061 " transform="matrix(1.00003,0,0,-1.00003,62.224297,87.440143)"/>
</g>
</svg>
