<?xml version="1.0" encoding="UTF-8"?>
<svg xmlns="http://www.w3.org/2000/svg" xmlns:xlink="http://www.w3.org/1999/xlink" width="241pt" height="35pt" viewBox="0 0 241 35" version="1.1">
<g id="surface1">
<path style="fill:none;stroke-width:0.3985;stroke-linecap:butt;stroke-linejoin:miter;stroke:rgb(0%,0%,0%);stroke-opacity:1;stroke-miterlimit:10;" d="M -117.064168 -0.0000636436 L 117.06241 -0.0000636436 " transform="matrix(1.00006,0,0,-1.0001,120.157129,31.175718)"/>
<path style=" stroke:none;fill-rule:nonzero;fill:rgb(0%,0%,0%);fill-opacity:1;" d="M 1.09375 31.175781 L 4.28125 32.769531 L 3.085938 31.175781 L 4.28125 29.582031 "/>
<path style=" stroke:none;fill-rule:nonzero;fill:rgb(0%,0%,0%);fill-opacity:1;" d="M 239.21875 31.175781 L 236.03125 29.582031 L 237.226562 31.175781 L 236.03125 32.769531 "/>
<path style="fill-rule:nonzero;fill:rgb(0%,0%,0%);fill-opacity:1;stroke-width:0.3985;stroke-linecap:butt;stroke-linejoin:miter;stroke:rgb(0%,0%,0%);stroke-opacity:1;stroke-miterlimit:10;" d="M -97.22942 -0.0000636436 C -97.22942 1.097483 -98.116086 1.984113 -99.213676 1.984113 C -100.311267 1.984113 -101.197932 1.097483 -101.197932 -0.0000636436 C -101.197932 -1.09761 -100.311267 -1.98424 -99.213676 -1.98424 C -98.116086 -1.98424 -97.22942 -1.09761 -97.22942 -0.0000636436 Z M -97.22942 -0.0000636436 " transform="matrix(1.00006,0,0,-1.0001,120.157129,31.175718)"/>
<path style="fill-rule:nonzero;fill:rgb(0%,0%,0%);fill-opacity:1;stroke-width:0.3985;stroke-linecap:butt;stroke-linejoin:miter;stroke:rgb(0%,0%,0%);stroke-opacity:1;stroke-miterlimit:10;" d="M -77.386861 -0.0000636436 C -77.386861 1.097483 -78.273526 1.984113 -79.371117 1.984113 C -80.464801 1.984113 -81.355373 1.097483 -81.355373 -0.0000636436 C -81.355373 -1.09761 -80.464801 -1.98424 -79.371117 -1.98424 C -78.273526 -1.98424 -77.386861 -1.09761 -77.386861 -0.0000636436 Z M -77.386861 -0.0000636436 " transform="matrix(1.00006,0,0,-1.0001,120.157129,31.175718)"/>
<path style="fill-rule:nonzero;fill:rgb(0%,0%,0%);fill-opacity:1;stroke-width:0.3985;stroke-linecap:butt;stroke-linejoin:miter;stroke:rgb(0%,0%,0%);stroke-opacity:1;stroke-miterlimit:10;" d="M -57.544301 -0.0000636436 C -57.544301 1.097483 -58.430967 1.984113 -59.528557 1.984113 C -60.622242 1.984113 -61.512813 1.097483 -61.512813 -0.0000636436 C -61.512813 -1.09761 -60.622242 -1.98424 -59.528557 -1.98424 C -58.430967 -1.98424 -57.544301 -1.09761 -57.544301 -0.0000636436 Z M -57.544301 -0.0000636436 " transform="matrix(1.00006,0,0,-1.0001,120.157129,31.175718)"/>
<path style="fill-rule:nonzero;fill:rgb(0%,0%,0%);fill-opacity:1;stroke-width:0.3985;stroke-linecap:butt;stroke-linejoin:miter;stroke:rgb(0%,0%,0%);stroke-opacity:1;stroke-miterlimit:10;" d="M -37.701742 -0.0000636436 C -37.701742 1.097483 -38.588407 1.984113 -39.685998 1.984113 C -40.779682 1.984113 -41.670254 1.097483 -41.670254 -0.0000636436 C -41.670254 -1.09761 -40.779682 -1.98424 -39.685998 -1.98424 C -38.588407 -1.98424 -37.701742 -1.09761 -37.701742 -0.0000636436 Z M -37.701742 -0.0000636436 " transform="matrix(1.00006,0,0,-1.0001,120.157129,31.175718)"/>
<path style="fill-rule:nonzero;fill:rgb(0%,0%,0%);fill-opacity:1;stroke-width:0.3985;stroke-linecap:butt;stroke-linejoin:miter;stroke:rgb(0%,0%,0%);stroke-opacity:1;stroke-miterlimit:10;" d="M -17.859182 -0.0000636436 C -17.859182 1.097483 -18.745848 1.984113 -19.843438 1.984113 C -20.937123 1.984113 -21.827694 1.097483 -21.827694 -0.0000636436 C -21.827694 -1.09761 -20.937123 -1.98424 -19.843438 -1.98424 C -18.745848 -1.98424 -17.859182 -1.09761 -17.859182 -0.0000636436 Z M -17.859182 -0.0000636436 " transform="matrix(1.00006,0,0,-1.0001,120.157129,31.175718)"/>
<path style="fill-rule:nonzero;fill:rgb(0%,0%,0%);fill-opacity:1;stroke-width:0.3985;stroke-linecap:butt;stroke-linejoin:miter;stroke:rgb(0%,0%,0%);stroke-opacity:1;stroke-miterlimit:10;" d="M 1.983377 -0.0000636436 C 1.983377 1.097483 1.096711 1.984113 -0.000878947 1.984113 C -1.094563 1.984113 -1.985135 1.097483 -1.985135 -0.0000636436 C -1.985135 -1.09761 -1.094563 -1.98424 -0.000878947 -1.98424 C 1.096711 -1.98424 1.983377 -1.09761 1.983377 -0.0000636436 Z M 1.983377 -0.0000636436 " transform="matrix(1.00006,0,0,-1.0001,120.157129,31.175718)"/>
<path style="fill-rule:nonzero;fill:rgb(0%,0%,0%);fill-opacity:1;stroke-width:0.3985;stroke-linecap:butt;stroke-linejoin:miter;stroke:rgb(0%,0%,0%);stroke-opacity:1;stroke-miterlimit:10;" d="M 21.825936 -0.0000636436 C 21.825936 1.097483 20.939271 1.984113 19.84168 1.984113 C 18.747996 1.984113 17.857425 1.097483 17.857425 -0.0000636436 C 17.857425 -1.09761 18.747996 -1.98424 19.84168 -1.98424 C 20.939271 -1.98424 21.825936 -1.09761 21.825936 -0.0000636436 Z M 21.825936 -0.0000636436 " transform="matrix(1.00006,0,0,-1.0001,120.157129,31.175718)"/>
<path style="fill-rule:nonzero;fill:rgb(0%,0%,0%);fill-opacity:1;stroke-width:0.3985;stroke-linecap:butt;stroke-linejoin:miter;stroke:rgb(0%,0%,0%);stroke-opacity:1;stroke-miterlimit:10;" d="M 41.668496 -0.0000636436 C 41.668496 1.097483 40.78183 1.984113 39.68424 1.984113 C 38.590556 1.984113 37.699984 1.097483 37.699984 -0.0000636436 C 37.699984 -1.09761 38.590556 -1.98424 39.68424 -1.98424 C 40.78183 -1.98424 41.668496 -1.09761 41.668496 -0.0000636436 Z M 41.668496 -0.0000636436 " transform="matrix(1.00006,0,0,-1.0001,120.157129,31.175718)"/>
<path style="fill-rule:nonzero;fill:rgb(0%,0%,0%);fill-opacity:1;stroke-width:0.3985;stroke-linecap:butt;stroke-linejoin:miter;stroke:rgb(0%,0%,0%);stroke-opacity:1;stroke-miterlimit:10;" d="M 61.511055 -0.0000636436 C 61.511055 1.097483 60.62439 1.984113 59.526799 1.984113 C 58.433115 1.984113 57.542543 1.097483 57.542543 -0.0000636436 C 57.542543 -1.09761 58.433115 -1.98424 59.526799 -1.98424 C 60.62439 -1.98424 61.511055 -1.09761 61.511055 -0.0000636436 Z M 61.511055 -0.0000636436 " transform="matrix(1.00006,0,0,-1.0001,120.157129,31.175718)"/>
<path style="fill-rule:nonzero;fill:rgb(0%,0%,0%);fill-opacity:1;stroke-width:0.3985;stroke-linecap:butt;stroke-linejoin:miter;stroke:rgb(0%,0%,0%);stroke-opacity:1;stroke-miterlimit:10;" d="M 81.353615 -0.0000636436 C 81.353615 1.097483 80.466949 1.984113 79.369359 1.984113 C 78.275674 1.984113 77.385103 1.097483 77.385103 -0.0000636436 C 77.385103 -1.09761 78.275674 -1.98424 79.369359 -1.98424 C 80.466949 -1.98424 81.353615 -1.09761 81.353615 -0.0000636436 Z M 81.353615 -0.0000636436 " transform="matrix(1.00006,0,0,-1.0001,120.157129,31.175718)"/>
<path style="fill-rule:nonzero;fill:rgb(0%,0%,0%);fill-opacity:1;stroke-width:0.3985;stroke-linecap:butt;stroke-linejoin:miter;stroke:rgb(0%,0%,0%);stroke-opacity:1;stroke-miterlimit:10;" d="M 101.196174 -0.0000636436 C 101.196174 1.097483 100.309509 1.984113 99.211918 1.984113 C 98.118234 1.984113 97.227662 1.097483 97.227662 -0.0000636436 C 97.227662 -1.09761 98.118234 -1.98424 99.211918 -1.98424 C 100.309509 -1.98424 101.196174 -1.09761 101.196174 -0.0000636436 Z M 101.196174 -0.0000636436 " transform="matrix(1.00006,0,0,-1.0001,120.157129,31.175718)"/>
<path style="fill-rule:nonzero;fill:rgb(100%,94.898987%,0%);fill-opacity:1;stroke-width:0.79701;stroke-linecap:butt;stroke-linejoin:miter;stroke:rgb(0%,0%,0%);stroke-opacity:1;stroke-miterlimit:10;" d="M -0.000878947 19.841702 L 8.592355 24.802144 C 5.854238 29.547763 -0.21571 31.1726 -4.961519 28.434593 C -9.707328 25.696585 -11.33223 19.62688 -8.590207 14.881261 C -5.85209 10.135642 0.213952 8.510804 4.959761 11.248811 C 6.467483 12.119818 7.721314 13.373599 8.592355 14.881261 Z M -0.000878947 19.841702 " transform="matrix(1.00006,0,0,-1.0001,120.157129,31.175718)"/>
</g>
</svg>
